<svg width="751" height="780" viewBox="0 0 751 780" fill="none" xmlns="http://www.w3.org/2000/svg">
<g opacity="0.2">
<path opacity="0.3" d="M332.549 331.297C405.221 331.297 464.133 272.385 464.133 199.713C464.133 127.041 405.221 68.1289 332.549 68.1289C259.877 68.1289 200.965 127.041 200.965 199.713C200.965 272.385 259.877 331.297 332.549 331.297Z" fill="#FFBE01"/>
<path opacity="0.3" d="M77.7542 643.512C120.697 643.512 155.508 608.701 155.508 565.758C155.508 522.816 120.697 488.004 77.7542 488.004C34.8117 488.004 0 522.816 0 565.758C0 608.701 34.8117 643.512 77.7542 643.512Z" fill="#FFBE01"/>
<path opacity="0.3" d="M576.577 724.854C664.444 724.854 735.674 653.624 735.674 565.757C735.674 477.89 664.444 406.66 576.577 406.66C488.711 406.66 417.48 477.89 417.48 565.757C417.48 653.624 488.711 724.854 576.577 724.854Z" fill="#FFBE01"/>
<path d="M49.1992 308.667L46.8594 308.168C47.3605 305.818 47.8829 303.475 48.4265 301.141L50.757 301.683C50.2167 304.004 49.6975 306.332 49.1992 308.667Z" fill="#FFBE01"/>
<path d="M802.527 288.902C801.3 284.344 799.968 279.741 798.571 275.221L800.856 274.515C802.263 279.062 803.603 283.694 804.837 288.281L802.527 288.902ZM54.2478 287.857L51.9395 287.229C53.1918 282.628 54.5492 277.984 55.9744 273.424L58.2581 274.137C56.8411 278.669 55.4925 283.285 54.2478 287.857V287.857ZM794.119 261.719C792.553 257.252 790.888 252.765 789.169 248.385L791.395 247.511C793.125 251.918 794.802 256.433 796.376 260.928L794.119 261.719ZM62.7743 260.58L60.5186 259.782C62.1119 255.281 63.8099 250.753 65.5657 246.322L67.7899 247.202C66.0447 251.607 64.3572 256.108 62.7743 260.58ZM783.726 235.24C781.843 230.916 779.85 226.563 777.803 222.302L779.96 221.265C782.019 225.554 784.025 229.934 785.92 234.285L783.726 235.24ZM73.2967 234.024L71.1064 233.06C73.0269 228.694 75.0543 224.306 77.1336 220.017L79.2866 221.06C77.2201 225.323 75.205 229.684 73.2967 234.024ZM771.403 209.586C769.197 205.399 766.888 201.202 764.539 197.113L766.613 195.921C768.977 200.035 771.301 204.258 773.52 208.471L771.403 209.586ZM85.7519 208.331L83.6386 207.209C85.8774 202.996 88.2231 198.77 90.6109 194.651L92.6809 195.851C90.3078 199.945 87.9761 204.144 85.7519 208.331ZM757.219 184.898C754.718 180.89 752.104 176.873 749.455 172.956L751.436 171.615C754.103 175.556 756.732 179.599 759.249 183.63L757.219 184.898ZM100.063 183.636L98.0382 182.362C100.576 178.332 103.225 174.293 105.912 170.356L107.888 171.704C105.218 175.617 102.585 179.632 100.063 183.636H100.063ZM741.253 161.307C738.476 157.508 735.576 153.691 732.632 149.962L734.51 148.48C737.472 152.232 740.39 156.072 743.185 159.894L741.253 161.307ZM116.146 160.07L114.221 158.649C117.052 154.811 119.99 150.978 122.952 147.257L124.823 148.746C121.88 152.445 118.96 156.255 116.146 160.07H116.146ZM723.597 138.939C720.534 135.337 717.362 131.742 714.167 128.252L715.931 126.637C719.145 130.147 722.338 133.765 725.42 137.389L723.597 138.939ZM133.909 137.75L132.092 136.193C135.189 132.582 138.398 128.975 141.631 125.473L143.389 127.096C140.176 130.576 136.987 134.161 133.909 137.75ZM704.348 117.916C701.022 114.54 697.594 111.185 694.157 107.944L695.799 106.203C699.256 109.465 702.706 112.841 706.051 116.237L704.348 117.916ZM153.251 116.797L151.553 115.112C154.913 111.728 158.376 108.367 161.846 105.121L163.48 106.868C160.031 110.094 156.59 113.435 153.251 116.797ZM683.605 98.3493C680.045 95.2285 676.379 92.1316 672.71 89.1452L674.219 87.2901C677.912 90.2946 681.6 93.4102 685.182 96.5503L683.605 98.3493ZM174.065 97.3189L172.495 95.5135C176.09 92.388 179.788 89.2894 183.488 86.3036L184.99 88.1656C181.314 91.1328 177.638 94.2127 174.065 97.3189ZM661.482 80.3453C657.711 77.4984 653.826 74.6779 649.939 71.9618L651.308 70.0005C655.221 72.7334 659.129 75.5715 662.923 78.4353L661.482 80.3453ZM196.241 79.4194L194.808 77.5036C198.623 74.6486 202.537 71.8297 206.44 69.1254L207.802 71.0926C203.923 73.7795 200.033 76.5814 196.241 79.4194ZM638.093 64.0064C634.115 61.4393 630.032 58.9102 625.961 56.4909L627.183 54.4337C631.279 56.8688 635.387 59.4131 639.39 61.996L638.093 64.0064ZM219.659 63.1969L218.369 61.1819C222.378 58.6172 226.486 56.0939 230.58 53.6816L231.795 55.7434C227.726 58.1404 223.642 60.6485 219.659 63.1969V63.1969ZM613.556 49.4264C609.408 47.1625 605.148 44.9406 600.898 42.8227L601.966 40.6814C606.242 42.8128 610.528 45.0481 614.702 47.3261L613.556 49.4264ZM244.194 48.7418L243.056 46.6368C247.238 44.3764 251.52 42.1626 255.78 40.0581L256.84 42.203C252.605 44.2946 248.351 46.4948 244.194 48.7418ZM588.002 36.6891C583.695 34.7371 579.282 32.8364 574.887 31.0386L575.792 28.8238C580.215 30.6327 584.656 32.5462 588.99 34.5105L588.002 36.6891ZM269.715 36.1372L268.736 33.955C273.065 32.0123 277.496 30.121 281.904 28.3349L282.802 30.5521C278.421 32.3277 274.018 34.2067 269.715 36.1372ZM561.566 25.8764C557.108 24.2439 552.564 22.6745 548.059 21.2113L548.798 18.9357C553.331 20.4082 557.903 21.9876 562.388 23.63L561.566 25.8764ZM296.082 25.4547L295.267 23.206C299.734 21.5851 304.29 20.0279 308.806 18.5765L309.538 20.8544C305.049 22.2965 300.523 23.8444 296.082 25.4547ZM534.385 17.0502C529.829 15.7559 525.192 14.531 520.601 13.4084L521.168 11.0849C525.788 12.214 530.455 13.447 535.039 14.7489L534.385 17.0502ZM323.19 16.7448L322.543 14.4411C327.121 13.1555 331.791 11.9365 336.423 10.818L336.985 13.1438C332.381 14.2554 327.74 15.4668 323.19 16.7448ZM506.691 10.28C502.058 9.32797 497.343 8.4495 492.676 7.66857L493.071 5.30884C497.766 6.09445 502.511 6.97876 507.172 7.93665L506.691 10.28ZM350.902 10.0552L350.428 7.71056C355.098 6.76491 359.845 5.89462 364.537 5.12362L364.925 7.48452C360.262 8.25032 355.544 9.11536 350.902 10.0552V10.0552ZM478.573 5.5746C473.873 4.96539 469.105 4.43677 464.404 4.00163L464.624 1.61971C469.355 2.0572 474.151 2.5893 478.881 3.20201L478.573 5.5746ZM379.034 5.43265L378.733 3.05891C383.447 2.46139 388.246 1.94271 392.994 1.51692L393.207 3.9C388.488 4.3229 383.719 4.83864 379.034 5.43266V5.43265ZM450.186 2.94792C445.471 2.68451 440.678 2.50461 435.939 2.41291L435.986 0.0204706C440.752 0.113345 445.575 0.294402 450.319 0.558993L450.186 2.94792ZM407.429 2.88657L407.303 0.497627C412.053 0.245895 416.877 0.0788427 421.64 0L421.68 2.39244C416.945 2.47015 412.151 2.63662 407.429 2.88657Z" fill="#FFBE01"/>
<path d="M428.248 779.882C425.648 779.882 423.054 779.857 420.466 779.806L420.512 777.414C425.242 777.506 430.004 777.512 434.738 777.436L434.777 779.828C432.605 779.863 430.428 779.881 428.248 779.882ZM449.081 779.337L448.955 776.947C453.686 776.698 458.46 776.359 463.142 775.941L463.354 778.324C458.644 778.744 453.841 779.085 449.081 779.337ZM406.166 779.268C401.418 779.003 396.617 778.647 391.897 778.212L392.116 775.829C396.808 776.262 401.58 776.616 406.3 776.88L406.166 779.268ZM477.582 776.792L477.282 774.419C481.991 773.823 486.727 773.136 491.357 772.377L491.744 774.739C487.085 775.501 482.32 776.192 477.582 776.792V776.792ZM377.673 776.633C372.946 776.02 368.183 775.315 363.517 774.534L363.912 772.174C368.549 772.949 373.282 773.651 377.98 774.26L377.673 776.633ZM505.822 772.167L505.349 769.822C509.991 768.885 514.663 767.851 519.235 766.751L519.795 769.078C515.195 770.184 510.493 771.224 505.822 772.167ZM349.448 771.916C344.781 770.958 340.082 769.903 335.484 768.781L336.052 766.456C340.622 767.572 345.291 768.621 349.929 769.573L349.448 771.916ZM533.646 765.473L533.001 763.169C537.538 761.898 542.122 760.523 546.623 759.08L547.353 761.358C542.824 762.81 538.212 764.195 533.646 765.473V765.473ZM321.646 765.133C317.073 763.836 312.453 762.433 307.915 760.962L308.653 758.687C313.163 760.148 317.754 761.543 322.299 762.831L321.646 765.133ZM560.863 756.754L560.049 754.505C564.47 752.905 568.929 751.2 573.301 749.433L574.197 751.652C569.797 753.429 565.311 755.146 560.863 756.754L560.863 756.754ZM294.353 756.288C289.882 754.654 285.381 752.913 280.977 751.114L281.881 748.9C286.258 750.687 290.731 752.417 295.175 754.041L294.353 756.288ZM587.336 746.062L586.36 743.878C590.666 741.951 594.989 739.921 599.211 737.842L600.267 739.989C596.019 742.08 591.669 744.123 587.336 746.062L587.336 746.062ZM267.804 745.452C263.469 743.492 259.112 741.426 254.853 739.309L255.918 737.166C260.15 739.27 264.481 741.325 268.79 743.273L267.804 745.452ZM612.97 733.441L611.834 731.336C615.993 729.095 620.157 726.752 624.212 724.37L625.425 726.433C621.343 728.829 617.153 731.188 612.97 733.441H612.97ZM242.14 732.691C237.96 730.418 233.769 728.036 229.681 725.613L230.901 723.555C234.964 725.964 239.129 728.33 243.283 730.59L242.14 732.691ZM637.618 718.968L636.332 716.952C640.293 714.427 644.276 711.783 648.17 709.094L649.53 711.063C645.611 713.768 641.603 716.428 637.618 718.968H637.618ZM217.495 718.083C213.499 715.512 209.495 712.831 205.594 710.113L206.961 708.15C210.839 710.851 214.819 713.515 218.789 716.071L217.495 718.083ZM661.148 702.725L659.718 700.807C663.492 697.993 667.274 695.064 670.956 692.103L672.456 693.967C668.75 696.947 664.946 699.893 661.148 702.725L661.148 702.725ZM193.995 701.713C190.206 698.863 186.41 695.897 182.714 692.897L184.221 691.04C187.895 694.021 191.668 696.968 195.433 699.802L193.995 701.713ZM683.437 684.799L681.871 682.991C685.437 679.902 688.995 676.705 692.448 673.486L694.079 675.236C690.606 678.475 687.025 681.692 683.437 684.799L683.437 684.799ZM171.763 683.673C168.181 680.543 164.613 677.309 161.158 674.06L162.797 672.317C166.231 675.546 169.777 678.761 173.337 681.872L171.763 683.673ZM704.369 665.291L702.676 663.601C706.019 660.249 709.335 656.799 712.534 653.349L714.288 654.975C711.07 658.447 707.733 661.918 704.369 665.291ZM150.912 664.067C147.579 660.696 144.257 657.211 141.039 653.71L142.801 652.091C145.999 655.571 149.3 659.034 152.614 662.385L150.912 664.067ZM723.827 644.302L722.014 642.741C725.1 639.157 728.158 635.474 731.102 631.792L732.971 633.287C730.009 636.99 726.932 640.697 723.827 644.302ZM131.552 643C128.472 639.392 125.414 635.676 122.464 631.954L124.339 630.468C127.271 634.167 130.31 637.86 133.372 641.447L131.552 643ZM741.71 621.942L739.788 620.516C742.611 616.707 745.392 612.809 748.054 608.93L750.026 610.283C747.349 614.186 744.551 618.108 741.71 621.942ZM113.786 620.584C110.975 616.76 108.198 612.831 105.531 608.909L107.51 607.564C110.16 611.462 112.92 615.366 115.714 619.168L113.786 620.584ZM757.912 598.325L755.891 597.044C758.415 593.062 760.904 588.969 763.288 584.88L765.356 586.085C762.956 590.2 760.452 594.318 757.912 598.325ZM97.7105 596.941C95.1895 592.925 92.7077 588.806 90.3351 584.699L92.4063 583.503C94.7649 587.584 97.2315 591.678 99.7373 595.67L97.7105 596.941ZM772.345 573.577L770.235 572.448C772.472 568.265 774.653 563.999 776.72 559.768L778.869 560.817C776.791 565.075 774.596 569.368 772.345 573.577ZM83.4149 572.195C81.1947 568.003 79.0231 563.715 76.9607 559.45L79.1148 558.408C81.1644 562.647 83.3226 566.909 85.5293 571.076L83.4149 572.195ZM784.92 547.824L782.733 546.854C784.647 542.538 786.509 538.119 788.267 533.722L790.489 534.61C788.719 539.035 786.847 543.481 784.92 547.824V547.824ZM70.9807 546.476C69.0737 542.131 67.2244 537.697 65.4838 533.298L67.7086 532.417C69.4381 536.791 71.2763 541.197 73.1711 545.515L70.9807 546.476ZM795.565 521.196L793.312 520.39C794.907 515.929 796.437 511.383 797.863 506.878L800.143 507.6C798.711 512.131 797.17 516.706 795.565 521.196ZM60.4794 519.928C58.8965 515.45 57.3755 510.881 55.9597 506.348L58.2435 505.635C59.6505 510.14 61.1616 514.68 62.7351 519.131L60.4794 519.928ZM804.213 493.84L801.907 493.202C803.159 488.667 804.346 484.032 805.435 479.425L807.764 479.976C806.667 484.611 805.473 489.276 804.213 493.84ZM51.9452 492.612C50.6999 488.037 49.5224 483.374 48.4453 478.753L50.7758 478.211C51.8459 482.803 53.0158 487.437 54.2535 491.984L51.9452 492.612Z" fill="#FFBE01"/>
<path d="M45.4053 464.5C44.9497 462.147 44.5151 459.787 44.1016 457.419L46.459 457.008C46.869 459.361 47.3008 461.706 47.7544 464.044L45.4053 464.5Z" fill="#FFBE01"/>
<path d="M623.546 467.076L621.322 466.196C622.19 464.001 623.034 461.754 623.83 459.516L626.085 460.318C625.279 462.582 624.425 464.855 623.546 467.076Z" fill="#FFBE01"/>
<path d="M428.247 599.846C425.382 599.846 422.49 599.788 419.652 599.673L419.749 597.283C424.457 597.473 429.269 597.506 433.993 597.375L434.058 599.768C432.127 599.82 430.19 599.846 428.247 599.846ZM448.437 598.887L448.21 596.506C452.922 596.058 457.673 595.438 462.334 594.669L462.724 597.028C458.01 597.809 453.202 598.434 448.437 598.887ZM405.285 598.604C400.526 598.087 395.729 597.398 391.025 596.555L391.447 594.2C396.097 595.032 400.839 595.714 405.544 596.226L405.285 598.604ZM476.85 594.191L476.297 591.864C480.904 590.77 485.525 589.505 490.033 588.101L490.744 590.386C486.184 591.805 481.509 593.086 476.85 594.191V594.191ZM376.938 593.53C372.292 592.363 367.633 591.019 363.089 589.538L363.831 587.262C368.322 588.727 372.928 590.056 377.521 591.21L376.938 593.53ZM504.345 585.628L503.477 583.399C507.88 581.686 512.283 579.794 516.564 577.779L517.584 579.943C513.253 581.982 508.799 583.896 504.345 585.628V585.628ZM349.55 584.597C345.112 582.801 340.683 580.828 336.385 578.732L337.435 576.583C341.682 578.654 346.06 580.604 350.448 582.379L349.55 584.597ZM530.399 573.36L529.234 571.271C533.367 568.963 537.469 566.485 541.426 563.906L542.733 565.91C538.73 568.519 534.58 571.026 530.399 573.36ZM323.656 571.978C319.509 569.59 315.393 567.028 311.422 564.364L312.755 562.378C316.681 565.012 320.75 567.545 324.85 569.906L323.656 571.978ZM554.529 557.634L553.087 555.725C556.869 552.871 560.595 549.856 564.162 546.763L565.729 548.571C562.121 551.699 558.353 554.748 554.529 557.634ZM299.738 555.929C295.95 552.994 292.222 549.893 288.658 546.716L290.25 544.931C293.773 548.071 297.459 551.135 301.204 554.039L299.738 555.929ZM576.285 538.765L574.598 537.069C577.953 533.732 581.234 530.238 584.35 526.684L586.149 528.261C582.997 531.855 579.679 535.389 576.285 538.765V538.765ZM278.232 536.772C274.887 533.355 271.615 529.779 268.509 526.14L270.329 524.586C273.399 528.184 276.634 531.721 279.941 535.1L278.232 536.772ZM595.274 517.11L593.372 515.659C596.239 511.901 599.013 507.993 601.619 504.042L603.617 505.36C600.98 509.356 598.174 513.309 595.274 517.11ZM259.534 514.868C256.681 511.023 253.928 507.033 251.35 503.008L253.365 501.719C255.913 505.696 258.635 509.641 261.455 513.443L259.534 514.868ZM611.132 493.067L609.05 491.89C611.376 487.774 613.59 483.523 615.629 479.255L617.788 480.286C615.725 484.604 613.486 488.904 611.132 493.067H611.132ZM244 490.619C241.699 486.418 239.518 482.089 237.518 477.752L239.69 476.75C241.668 481.037 243.824 485.316 246.098 489.469L244 490.619Z" fill="#FFBE01"/>
<path d="M231.905 464.392C231.059 462.161 230.237 459.876 229.461 457.599L231.726 456.828C232.492 459.079 233.305 461.338 234.142 463.542L231.905 464.392Z" fill="#FFBE01"/>
<path d="M235.6 312.546L233.381 311.654C234.277 309.424 235.221 307.187 236.188 305.004L238.376 305.972C237.42 308.131 236.486 310.342 235.6 312.546Z" fill="#FFBE01"/>
<path d="M244.663 293.014L242.549 291.896C244.809 287.623 247.25 283.372 249.804 279.262L251.835 280.525C249.311 284.588 246.898 288.79 244.663 293.014ZM609.94 289.53C607.628 285.351 605.135 281.196 602.533 277.18L604.54 275.879C607.173 279.941 609.695 284.144 612.034 288.371L609.94 289.53ZM259.856 268.564L257.916 267.163C260.747 263.241 263.752 259.369 266.846 255.654L268.685 257.185C265.626 260.858 262.655 264.686 259.856 268.564ZM594.284 265.373C591.415 261.554 588.372 257.783 585.243 254.165L587.051 252.599C590.218 256.259 593.295 260.073 596.198 263.937L594.284 265.373ZM278.278 246.442L276.549 244.788C279.892 241.295 283.401 237.873 286.977 234.617L288.588 236.387C285.052 239.605 281.583 242.988 278.278 246.442ZM575.449 243.607C572.078 240.215 568.545 236.898 564.949 233.748L566.526 231.949C570.163 235.135 573.736 238.49 577.146 241.92L575.449 243.607ZM299.567 227.065L298.082 225.189C301.877 222.186 305.823 219.28 309.81 216.55L311.162 218.525C307.22 221.223 303.319 224.096 299.567 227.065ZM553.796 224.637C549.992 221.743 546.037 218.945 542.039 216.318L543.352 214.319C547.396 216.975 551.397 219.806 555.244 222.733L553.796 224.637ZM323.32 210.808L322.108 208.745C326.278 206.297 330.588 203.964 334.918 201.811L335.984 203.954C331.703 206.082 327.442 208.388 323.32 210.808ZM529.735 208.835C525.561 206.49 521.256 204.266 516.941 202.223L517.964 200.06C522.33 202.127 526.684 204.377 530.906 206.748L529.735 208.835ZM349.094 197.997L348.18 195.785C352.65 193.94 357.243 192.229 361.83 190.7L362.586 192.97C358.052 194.481 353.512 196.172 349.094 197.997ZM503.717 196.519C499.26 194.778 494.689 193.174 490.129 191.752L490.842 189.468C495.454 190.907 500.079 192.529 504.588 194.29L503.717 196.519ZM376.397 188.899L375.802 186.582C380.483 185.378 385.269 184.324 390.028 183.449L390.46 185.802C385.756 186.667 381.025 187.709 376.397 188.899ZM476.241 187.947C471.59 186.846 466.84 185.895 462.121 185.12L462.509 182.76C467.282 183.543 472.087 184.505 476.793 185.619L476.241 187.947ZM404.705 183.691L404.437 181.313C409.227 180.772 414.112 180.391 418.958 180.179L419.063 182.569C414.271 182.779 409.441 183.156 404.705 183.691ZM447.839 183.283C443.09 182.838 438.253 182.552 433.464 182.434L433.523 180.043C438.367 180.162 443.259 180.451 448.062 180.901L447.839 183.283Z" fill="#FFBE01"/>
<path d="M619.406 308.956C618.48 306.77 617.504 304.576 616.508 302.435L618.676 301.426C619.684 303.592 620.671 305.811 621.609 308.021L619.406 308.956Z" fill="#FFBE01"/>
<path d="M48.6535 612.573C45.8144 612.573 43.0391 611.731 40.6785 610.153C38.3179 608.576 36.478 606.334 35.3915 603.711C34.305 601.088 34.0208 598.202 34.5747 595.417C35.1285 592.633 36.4957 590.075 38.5032 588.068C40.5107 586.06 43.0685 584.693 45.853 584.139C48.6375 583.585 51.5238 583.869 54.1467 584.956C56.7697 586.042 59.0116 587.882 60.5889 590.243C62.1662 592.603 63.0081 595.379 63.0081 598.218C63.0037 602.024 61.49 605.672 58.7989 608.363C56.1078 611.054 52.4592 612.568 48.6535 612.573ZM48.6535 586.256C46.2876 586.256 43.9748 586.957 42.0076 588.272C40.0404 589.586 38.5072 591.454 37.6018 593.64C36.6964 595.826 36.4596 598.231 36.9211 600.552C37.3827 602.872 38.522 605.003 40.1949 606.676C41.8678 608.349 43.9993 609.489 46.3197 609.95C48.6402 610.412 51.0454 610.175 53.2312 609.269C55.417 608.364 57.2852 606.831 58.5996 604.864C59.9141 602.897 60.6156 600.584 60.6156 598.218C60.6121 595.046 59.3507 592.006 57.1081 589.763C54.8655 587.521 51.8249 586.259 48.6535 586.256Z" fill="#FFBE01"/>
<path d="M351.296 290.787C348.457 290.787 345.682 289.945 343.321 288.368C340.96 286.791 339.121 284.549 338.034 281.926C336.948 279.303 336.663 276.417 337.217 273.632C337.771 270.848 339.138 268.29 341.146 266.283C343.153 264.275 345.711 262.908 348.496 262.354C351.28 261.8 354.166 262.084 356.789 263.171C359.412 264.257 361.654 266.097 363.231 268.458C364.809 270.818 365.651 273.594 365.651 276.433C365.646 280.239 364.133 283.887 361.441 286.578C358.75 289.269 355.102 290.783 351.296 290.787ZM351.296 264.471C348.93 264.471 346.617 265.172 344.65 266.487C342.683 267.801 341.15 269.669 340.244 271.855C339.339 274.041 339.102 276.446 339.564 278.766C340.025 281.087 341.165 283.218 342.837 284.891C344.51 286.564 346.642 287.704 348.962 288.165C351.283 288.627 353.688 288.39 355.874 287.484C358.06 286.579 359.928 285.046 361.242 283.079C362.557 281.111 363.258 278.799 363.258 276.433C363.255 273.261 361.993 270.221 359.751 267.978C357.508 265.736 354.468 264.474 351.296 264.471Z" fill="#FFBE01"/>
<path d="M618.617 684.786L602.51 667.517L619.779 651.41L635.886 668.679L618.617 684.786ZM605.077 667.607L618.706 682.219L633.318 668.59L619.689 653.978L605.077 667.607Z" fill="#FFBE01"/>
</g>
</svg>
