<svg width="32" height="32" viewBox="0 0 32 32" fill="none" xmlns="http://www.w3.org/2000/svg">
<g clip-path="url(#clip0)">
<path d="M29.3333 0.5625H19.7334C18.2612 0.564209 17.0684 1.75708 17.0667 3.22925V5.89575H6.3999V4.8291C6.3999 3.06177 4.96729 1.62915 3.19995 1.62915C1.43262 1.62915 0 3.06177 0 4.8291V28.2959C0.00170899 30.0625 1.43335 31.4941 3.19995 31.4958H26.6667C28.4333 31.4941 29.865 30.0625 29.8667 28.2959V27.1758C31.1074 26.9207 31.9983 25.8291 32 24.5625V3.22925C31.9983 1.75708 30.8054 0.564209 29.3333 0.5625V0.5625ZM19.7334 1.62915H29.3333C30.217 1.62915 30.9333 2.34546 30.9333 3.22925V4.8291H18.1333V3.22925C18.1333 2.34546 18.8496 1.62915 19.7334 1.62915ZM30.9333 20.2959H18.1333V5.89575H30.9333V20.2959ZM17.0667 12.0325L11.2336 9.62915H17.0667V12.0325ZM16.2 12.8291L9.13379 15.7407C9.09155 15.6658 9.06836 15.5818 9.06665 15.4958V10.1626C9.06836 10.0767 9.09155 9.99243 9.13379 9.91772L16.2 12.8291ZM17.0667 13.626V16.0291H11.2336L17.0667 13.626ZM3.19995 2.6958C4.37817 2.6958 5.33325 3.65088 5.33325 4.8291V23.7839C4.12183 22.6887 2.27808 22.6887 1.06665 23.7839V4.8291C1.06665 3.65088 2.02173 2.6958 3.19995 2.6958ZM26.6667 30.4292H3.19995C2.02173 30.4292 1.06665 29.4741 1.06665 28.2959V26.1626C1.06665 24.9844 2.02173 24.0291 3.19995 24.0291C4.37817 24.0291 5.33325 24.9844 5.33325 26.1626C5.33325 26.457 5.57202 26.6958 5.8667 26.6958C6.16113 26.6958 6.3999 26.457 6.3999 26.1626V6.9624H17.0667V8.5625H9.6001C9.31543 8.56396 9.03638 8.64209 8.79248 8.78906C8.78564 8.78906 8.77979 8.79663 8.77271 8.7998C8.73291 8.82446 8.69385 8.84937 8.65649 8.8772C8.63916 8.88965 8.62256 8.90308 8.60693 8.91772C8.2251 9.21826 8.00171 9.67676 8 10.1626V15.4958C8.00171 15.9875 8.23047 16.4509 8.61963 16.7512C8.65527 16.7866 8.6958 16.8167 8.73975 16.8408C8.99609 17.0068 9.29468 17.0952 9.6001 17.0959H17.0667V18.6958H13.8667C13.572 18.6958 13.3333 18.9346 13.3333 19.2292C13.3333 19.5237 13.572 19.7625 13.8667 19.7625H17.0667V21.3625H8.53345C8.23877 21.3625 8 21.6013 8 21.8958C8 22.1904 8.23877 22.4292 8.53345 22.4292H17.0667V24.5625C17.0684 26.0344 18.2612 27.2273 19.7334 27.2292H28.8V28.2959C28.8 28.8616 28.5752 29.4043 28.175 29.8044C27.7751 30.2043 27.2324 30.4292 26.6667 30.4292ZM29.3333 26.1626H19.7334C18.8496 26.1626 18.1333 25.446 18.1333 24.5625V21.3625H30.9333V24.5625C30.9333 25.446 30.217 26.1626 29.3333 26.1626Z" fill="#FFBE01"/>
<path d="M23.4666 3.76245H25.6001C25.8945 3.76245 26.1333 3.52368 26.1333 3.22925C26.1333 2.93457 25.8945 2.6958 25.6001 2.6958H23.4666C23.1721 2.6958 22.9333 2.93457 22.9333 3.22925C22.9333 3.52368 23.1721 3.76245 23.4666 3.76245Z" fill="#FFBE01"/>
<path d="M25.0667 21.8958H24C23.4109 21.8958 22.9333 22.3733 22.9333 22.9624V24.029C22.9333 24.6182 23.4109 25.0959 24 25.0959H25.0667C25.6558 25.0959 26.1333 24.6182 26.1333 24.029V22.9624C26.1333 22.3733 25.6558 21.8958 25.0667 21.8958ZM24 24.029V22.9624H25.0667V24.029H24Z" fill="#FFBE01"/>
<path d="M19.5596 13.6216C19.5669 13.6292 19.5754 13.6345 19.5835 13.6414C19.7739 13.8047 20.0159 13.8948 20.2666 13.8958H28.8C29.0513 13.8945 29.2942 13.804 29.4849 13.6404C29.4922 13.634 29.4998 13.6287 29.5071 13.6216C29.7349 13.4211 29.8657 13.1326 29.8667 12.8291V8.02905C29.8657 7.70215 29.7141 7.39404 29.4556 7.19385L29.4417 7.18213C29.2576 7.04053 29.0322 6.96338 28.8 6.9624H20.2666C20.0349 6.96387 19.8101 7.0415 19.6267 7.18335L19.6155 7.19238C19.355 7.39209 19.2017 7.70093 19.2 8.02905V12.8291C19.2009 13.1326 19.3318 13.4211 19.5596 13.6216ZM28.8 12.4104L25.5569 10.4292L28.8 8.44849V12.4104ZM27.4399 12.8291H21.6267L24.5334 11.0542L27.4399 12.8291ZM24.5334 9.8042L21.6267 8.02905H27.4399L24.5334 9.8042ZM23.5098 10.4292L20.2666 12.4099V8.44849L23.5098 10.4292Z" fill="#FFBE01"/>
<path d="M20.2666 16.0291H22.3999C22.6946 16.0291 22.9333 15.7903 22.9333 15.4958C22.9333 15.2012 22.6946 14.9624 22.3999 14.9624H20.2666C19.9722 14.9624 19.7334 15.2012 19.7334 15.4958C19.7334 15.7903 19.9722 16.0291 20.2666 16.0291Z" fill="#FFBE01"/>
<path d="M29.3333 14.9624H24.5334C24.2388 14.9624 24 15.2012 24 15.4958C24 15.7903 24.2388 16.0291 24.5334 16.0291H29.3333C29.6279 16.0291 29.8667 15.7903 29.8667 15.4958C29.8667 15.2012 29.6279 14.9624 29.3333 14.9624Z" fill="#FFBE01"/>
<path d="M29.3333 17.0959H20.2666C19.9722 17.0959 19.7334 17.3347 19.7334 17.6292C19.7334 17.9238 19.9722 18.1626 20.2666 18.1626H29.3333C29.6279 18.1626 29.8667 17.9238 29.8667 17.6292C29.8667 17.3347 29.6279 17.0959 29.3333 17.0959Z" fill="#FFBE01"/>
<path d="M8.53345 19.7625H11.2C11.4946 19.7625 11.7334 19.5237 11.7334 19.2292C11.7334 18.9346 11.4946 18.6958 11.2 18.6958H8.53345C8.23877 18.6958 8 18.9346 8 19.2292C8 19.5237 8.23877 19.7625 8.53345 19.7625Z" fill="#FFBE01"/>
</g>
<defs>
<clipPath id="clip0">
<rect width="32" height="32" fill="white"/>
</clipPath>
</defs>
</svg>
