<svg width="20" height="20" viewBox="0 0 20 20" fill="none" xmlns="http://www.w3.org/2000/svg">
<rect width="20" height="20" fill="#E5E5E5"/>
<g clip-path="url(#clip0)">
<rect x="-391" y="-408" width="1920" height="4272" fill="white"/>
<path d="M10.001 2.90361e-05C5.95604 -0.000699399 2.3091 2.43578 0.761194 6.17295C-0.786421 9.91027 0.0696256 14.2118 2.93074 17.0712C6.83569 20.9763 13.1666 20.9763 17.0714 17.0712C20.9762 13.1665 20.9762 6.83554 17.0714 2.93053C15.2004 1.04883 12.6545 -0.00638122 10.001 2.90361e-05ZM10.001 19.0715C5.00064 19.0715 0.930626 15.0013 0.930626 10.0009C0.930626 5.00046 5.00064 0.930389 10.001 0.930389C15.0014 0.930389 19.0715 5.00046 19.0715 10.0009C19.0715 15.0013 15.0014 19.0715 10.001 19.0715Z" fill="#FFBE01"/>
<path d="M14.7542 6.92243L8.74921 12.6624L5.47449 9.39227C5.2934 9.21118 4.99985 9.21118 4.81862 9.39227C4.63753 9.5735 4.63753 9.86706 4.81862 10.0483L8.41428 13.644C8.50154 13.7317 8.62071 13.7804 8.74454 13.7788C8.86459 13.7799 8.98012 13.733 9.06549 13.6485L15.3961 7.59697C15.5797 7.41908 15.5856 7.12654 15.4096 6.94137C15.2334 6.75635 14.941 6.7479 14.7542 6.92243Z" fill="#FFBE01"/>
</g>
<defs>
<clipPath id="clip0">
<rect x="-391" y="-408" width="1920" height="4272" fill="white"/>
</clipPath>
</defs>
</svg>
