<svg width="492" height="336" viewBox="0 0 492 336" fill="none" xmlns="http://www.w3.org/2000/svg">
<g clip-path="url(#clip0)">
<path d="M239.486 16.8368H238.916V15.838H239.343C239.419 15.838 239.491 15.808 239.545 15.7544C239.598 15.7009 239.628 15.6283 239.628 15.5527V10.416C239.628 10.3403 239.598 10.2677 239.545 10.2142C239.491 10.1607 239.419 10.1306 239.343 10.1306H238.916V7.21344C238.916 6.39732 238.755 5.58919 238.443 4.83519C238.131 4.08119 237.674 3.39609 237.098 2.81901C236.521 2.24192 235.837 1.78416 235.084 1.47184C234.331 1.15953 233.524 0.998788 232.709 0.998793H232.075V0.28537C232.075 0.209685 232.045 0.1371 231.992 0.0835827C231.938 0.0300655 231.866 0 231.79 0H226.66C226.584 0 226.512 0.0300655 226.458 0.0835827C226.405 0.1371 226.375 0.209685 226.375 0.28537V0.998793H133.682C132.866 0.998788 132.059 1.15953 131.306 1.47184C130.553 1.78416 129.869 2.24192 129.293 2.81901C128.716 3.39609 128.259 4.08119 127.947 4.83519C127.635 5.58919 127.475 6.39732 127.475 7.21344V139.467C127.475 140.283 127.635 141.091 127.947 141.845C128.259 142.599 128.716 143.284 129.293 143.861C129.869 144.438 130.553 144.896 131.306 145.208C132.059 145.52 132.866 145.681 133.682 145.681H232.709C233.524 145.681 234.331 145.52 235.084 145.208C235.837 144.896 236.521 144.438 237.098 143.861C237.674 143.284 238.131 142.599 238.443 141.845C238.755 141.091 238.916 140.283 238.916 139.467V22.5442H239.486C239.561 22.5442 239.634 22.5141 239.687 22.4606C239.741 22.4071 239.771 22.3345 239.771 22.2588V17.1222C239.771 17.0465 239.741 16.9739 239.687 16.9204C239.634 16.8669 239.561 16.8368 239.486 16.8368Z" fill="#3F3D56"/>
<path d="M234.641 5.06272H132.604V140.616H234.641V5.06272Z" fill="#F2F2F2"/>
<path d="M492 286H63V285.5H492V286Z" fill="#3F3D56"/>
<path d="M114.898 240.996C115.848 273.565 96.8418 285.501 72.9896 286.198C72.4355 286.214 71.884 286.224 71.3349 286.228C70.2288 286.236 69.1334 286.218 68.0487 286.173C46.4768 285.276 29.4013 273.811 28.5178 243.522C27.6036 212.177 66.4615 171.449 69.3769 168.437C69.3796 168.437 69.3796 168.437 69.3821 168.434C69.4929 168.319 69.5496 168.262 69.5496 168.262C69.5496 168.262 113.948 208.43 114.898 240.996Z" fill="#FFBE01"/>
<path d="M71.2712 281.265L86.4229 258.705L71.3021 283.692L71.3338 286.231C70.2276 286.239 69.1322 286.221 68.0476 286.175L68.7991 253.543L68.7785 253.292L68.8062 253.243L68.8781 250.16L52.2852 226.039L68.8586 247.852L68.9174 248.503L69.485 223.849L55.1531 198.841L69.5258 219.518L69.3758 168.44L69.3761 168.27L69.381 168.437L70.3323 208.693L83.3941 192.341L70.3751 212.161L70.6602 234.214L82.6797 212.691L70.7043 237.456L70.863 249.719L88.3427 219.738L70.9162 253.997L71.2712 281.265Z" fill="#3F3D56"/>
<path d="M367.246 45.0969H366.615V27.7901C366.615 26.4746 366.356 25.1721 365.853 23.9568C365.35 22.7415 364.613 21.6373 363.684 20.7071C362.755 19.777 361.653 19.0392 360.439 18.5358C359.225 18.0324 357.924 17.7733 356.61 17.7733H319.989C318.675 17.7733 317.374 18.0324 316.16 18.5358C314.947 19.0392 313.844 19.777 312.915 20.7071C311.986 21.6373 311.249 22.7415 310.746 23.9568C310.243 25.1721 309.985 26.4746 309.985 27.7901V122.737C309.985 124.052 310.243 125.355 310.746 126.57C311.249 127.785 311.986 128.89 312.915 129.82C313.844 130.75 314.947 131.488 316.16 131.991C317.374 132.494 318.675 132.754 319.989 132.753H356.61C357.924 132.754 359.225 132.494 360.439 131.991C361.653 131.488 362.755 130.75 363.684 129.82C364.613 128.89 365.35 127.785 365.853 126.57C366.356 125.355 366.615 124.052 366.615 122.737V57.4162H367.246V45.0969Z" fill="#3F3D56"/>
<path d="M364.484 28.3777V123.186C364.485 125.17 363.698 127.073 362.297 128.476C360.896 129.879 358.996 130.667 357.014 130.668H320.216C318.235 130.667 316.334 129.879 314.933 128.476C313.533 127.073 312.746 125.17 312.746 123.186V28.3777C312.746 26.3941 313.533 24.4919 314.934 23.0893C316.335 21.6867 318.235 20.8986 320.216 20.8984H324.681C324.461 21.438 324.377 22.0234 324.437 22.6031C324.496 23.1828 324.697 23.7389 325.022 24.2225C325.346 24.7061 325.785 25.1023 326.299 25.3762C326.812 25.6502 327.385 25.7935 327.967 25.7934H348.947C349.529 25.7935 350.103 25.6502 350.616 25.3763C351.13 25.1023 351.568 24.7061 351.893 24.2225C352.218 23.7389 352.419 23.1828 352.478 22.6031C352.538 22.0234 352.454 21.438 352.234 20.8984H357.014C358.995 20.8986 360.895 21.6867 362.296 23.0893C363.697 24.4919 364.484 26.3941 364.484 28.3777Z" fill="#F2F2F2"/>
<path d="M359.089 33.5048H328V34.6615H359.089V33.5048Z" fill="#CCCCCC"/>
<path d="M359.089 37.1671H328V38.3237H359.089V37.1671Z" fill="#CCCCCC"/>
<path d="M359.089 40.8281H328V41.9848H359.089V40.8281Z" fill="#CCCCCC"/>
<path d="M325.184 34.2188H318.141V41.2712H325.184V34.2188Z" fill="#CCCCCC"/>
<path d="M359.089 115.782H328V116.938H359.089V115.782Z" fill="#CCCCCC"/>
<path d="M359.089 119.445H328V120.602H359.089V119.445Z" fill="#CCCCCC"/>
<path d="M359.089 123.105H328V124.262H359.089V123.105Z" fill="#CCCCCC"/>
<path d="M325.184 116.496H318.141V123.549H325.184V116.496Z" fill="#CCCCCC"/>
<path d="M355.77 161.402H267.359V159.578H227.271V161.402H138.496C137.71 161.402 136.933 161.557 136.207 161.858C135.481 162.159 134.822 162.6 134.267 163.156C133.712 163.712 133.271 164.372 132.971 165.099C132.67 165.825 132.515 166.604 132.515 167.39V288.602C132.515 290.19 133.145 291.713 134.267 292.836C135.388 293.959 136.91 294.589 138.496 294.589H355.77C357.356 294.589 358.877 293.959 359.999 292.836C361.12 291.713 361.75 290.19 361.75 288.602V167.39C361.75 166.604 361.596 165.825 361.295 165.099C360.995 164.372 360.554 163.712 359.999 163.156C359.443 162.6 358.784 162.159 358.059 161.858C357.333 161.557 356.555 161.402 355.77 161.402Z" fill="#3F3D56"/>
<path d="M353.733 171.984H140.533V292.4H353.733V171.984Z" fill="#F2F2F2"/>
<path d="M246.95 168.703C248.158 168.703 249.137 167.723 249.137 166.514C249.137 165.304 248.158 164.324 246.95 164.324C245.743 164.324 244.764 165.304 244.764 166.514C244.764 167.723 245.743 168.703 246.95 168.703Z" fill="#FFBE01"/>
<path d="M367.737 290.209H346.93V288.708C346.93 288.669 346.922 288.63 346.907 288.594C346.892 288.558 346.87 288.525 346.843 288.497C346.815 288.47 346.782 288.448 346.746 288.433C346.71 288.418 346.672 288.41 346.633 288.41H339.499C339.46 288.41 339.421 288.418 339.385 288.433C339.349 288.448 339.316 288.47 339.289 288.497C339.261 288.525 339.239 288.558 339.224 288.594C339.209 288.63 339.202 288.669 339.202 288.708V290.209H334.743V288.708C334.743 288.669 334.735 288.63 334.72 288.594C334.705 288.558 334.683 288.525 334.656 288.497C334.628 288.47 334.595 288.448 334.559 288.433C334.523 288.418 334.485 288.41 334.446 288.41H327.312C327.273 288.41 327.234 288.418 327.198 288.433C327.162 288.448 327.129 288.47 327.102 288.497C327.074 288.525 327.052 288.558 327.037 288.594C327.022 288.63 327.015 288.669 327.015 288.708V290.209H322.556V288.708C322.556 288.669 322.548 288.63 322.533 288.594C322.518 288.558 322.497 288.525 322.469 288.497C322.441 288.47 322.409 288.448 322.373 288.433C322.336 288.418 322.298 288.41 322.259 288.41H315.125C315.086 288.41 315.047 288.418 315.011 288.433C314.975 288.448 314.942 288.47 314.915 288.497C314.887 288.525 314.865 288.558 314.85 288.594C314.835 288.63 314.828 288.669 314.828 288.708V290.209H310.369V288.708C310.369 288.669 310.361 288.63 310.346 288.594C310.332 288.558 310.31 288.525 310.282 288.497C310.254 288.47 310.222 288.448 310.186 288.433C310.15 288.418 310.111 288.41 310.072 288.41H302.938C302.899 288.41 302.86 288.418 302.824 288.433C302.788 288.448 302.756 288.47 302.728 288.497C302.7 288.525 302.678 288.558 302.663 288.594C302.649 288.63 302.641 288.669 302.641 288.708V290.209H298.182V288.708C298.182 288.669 298.175 288.63 298.16 288.594C298.145 288.558 298.123 288.525 298.095 288.497C298.068 288.47 298.035 288.448 297.999 288.433C297.963 288.418 297.924 288.41 297.885 288.41H290.751C290.712 288.41 290.674 288.418 290.637 288.433C290.601 288.448 290.569 288.47 290.541 288.497C290.513 288.525 290.492 288.558 290.477 288.594C290.462 288.63 290.454 288.669 290.454 288.708V290.209H285.995V288.708C285.995 288.669 285.988 288.63 285.973 288.594C285.958 288.558 285.936 288.525 285.908 288.497C285.881 288.47 285.848 288.448 285.812 288.433C285.776 288.418 285.737 288.41 285.698 288.41H278.564C278.525 288.41 278.487 288.418 278.451 288.433C278.414 288.448 278.382 288.47 278.354 288.497C278.326 288.525 278.305 288.558 278.29 288.594C278.275 288.63 278.267 288.669 278.267 288.708V290.209H273.808V288.708C273.808 288.669 273.801 288.63 273.786 288.594C273.771 288.558 273.749 288.525 273.721 288.497C273.694 288.47 273.661 288.448 273.625 288.433C273.589 288.418 273.55 288.41 273.511 288.41H217.63C217.591 288.41 217.552 288.418 217.516 288.433C217.48 288.448 217.447 288.47 217.42 288.497C217.392 288.525 217.37 288.558 217.355 288.594C217.34 288.63 217.333 288.669 217.333 288.708V290.209H212.874V288.708C212.874 288.669 212.866 288.63 212.851 288.594C212.836 288.558 212.814 288.525 212.787 288.497C212.759 288.47 212.727 288.448 212.69 288.433C212.654 288.418 212.616 288.41 212.577 288.41H205.443C205.404 288.41 205.365 288.418 205.329 288.433C205.293 288.448 205.26 288.47 205.233 288.497C205.205 288.525 205.183 288.558 205.168 288.594C205.153 288.63 205.146 288.669 205.146 288.708V290.209H200.687V288.708C200.687 288.669 200.679 288.63 200.664 288.594C200.649 288.558 200.628 288.525 200.6 288.497C200.572 288.47 200.54 288.448 200.504 288.433C200.467 288.418 200.429 288.41 200.39 288.41H193.256C193.217 288.41 193.178 288.418 193.142 288.433C193.106 288.448 193.073 288.47 193.046 288.497C193.018 288.525 192.996 288.558 192.981 288.594C192.966 288.63 192.959 288.669 192.959 288.708V290.209H188.5V288.708C188.5 288.669 188.492 288.63 188.478 288.594C188.463 288.558 188.441 288.525 188.413 288.497C188.385 288.47 188.353 288.448 188.317 288.433C188.281 288.418 188.242 288.41 188.203 288.41H181.069C181.03 288.41 180.991 288.418 180.955 288.433C180.919 288.448 180.887 288.47 180.859 288.497C180.831 288.525 180.809 288.558 180.794 288.594C180.78 288.63 180.772 288.669 180.772 288.708V290.209H176.313V288.708C176.313 288.669 176.306 288.63 176.291 288.594C176.276 288.558 176.254 288.525 176.226 288.497C176.199 288.47 176.166 288.448 176.13 288.433C176.094 288.418 176.055 288.41 176.016 288.41H168.882C168.843 288.41 168.805 288.418 168.768 288.433C168.732 288.448 168.7 288.47 168.672 288.497C168.644 288.525 168.623 288.558 168.608 288.594C168.593 288.63 168.585 288.669 168.585 288.708V290.209H164.126V288.708C164.126 288.669 164.119 288.63 164.104 288.594C164.089 288.558 164.067 288.525 164.039 288.497C164.012 288.47 163.979 288.448 163.943 288.433C163.907 288.418 163.868 288.41 163.829 288.41H156.695C156.656 288.41 156.618 288.418 156.582 288.433C156.546 288.448 156.513 288.47 156.485 288.497C156.458 288.525 156.436 288.558 156.421 288.594C156.406 288.63 156.398 288.669 156.398 288.708V290.209H151.939V288.708C151.939 288.669 151.932 288.63 151.917 288.594C151.902 288.558 151.88 288.525 151.852 288.497C151.825 288.47 151.792 288.448 151.756 288.433C151.72 288.418 151.681 288.41 151.642 288.41H144.508C144.469 288.41 144.431 288.418 144.395 288.433C144.359 288.448 144.326 288.47 144.298 288.497C144.271 288.525 144.249 288.558 144.234 288.594C144.219 288.63 144.211 288.669 144.211 288.708V290.209H130.538C128.646 290.209 126.832 290.961 125.494 292.301C124.156 293.64 123.404 295.457 123.404 297.351V300.581C123.404 302.476 124.156 304.292 125.494 305.632C126.832 306.971 128.646 307.724 130.538 307.724H367.737C369.629 307.724 371.443 306.971 372.781 305.632C374.119 304.292 374.871 302.476 374.871 300.581V297.351C374.871 296.413 374.686 295.485 374.327 294.618C373.969 293.751 373.443 292.964 372.781 292.301C372.119 291.638 371.332 291.111 370.467 290.752C369.601 290.394 368.674 290.209 367.737 290.209Z" fill="#3F3D56"/>
<path d="M286.353 181.414H226.527V183.64H286.353V181.414Z" fill="#E6E6E6"/>
<path d="M286.353 188.464H226.527V190.69H286.353V188.464Z" fill="#E6E6E6"/>
<path d="M286.353 195.511H226.527V197.737H286.353V195.511Z" fill="#E6E6E6"/>
<path d="M286.353 181.414H226.527V183.64H286.353V181.414Z" fill="#CCCCCC"/>
<path d="M286.353 188.464H226.527V190.69H286.353V188.464Z" fill="#CCCCCC"/>
<path d="M286.353 195.511H226.527V197.737H286.353V195.511Z" fill="#CCCCCC"/>
<path d="M221.109 182.789H207.555V196.361H221.109V182.789Z" fill="#CCCCCC"/>
<path d="M286.353 260.723H226.527V262.948H286.353V260.723Z" fill="#CCCCCC"/>
<path d="M286.353 267.773H226.527V269.999H286.353V267.773Z" fill="#CCCCCC"/>
<path d="M286.353 274.819H226.527V277.045H286.353V274.819Z" fill="#CCCCCC"/>
<path d="M221.11 262.099H207.555V275.67H221.11V262.099Z" fill="#CCCCCC"/>
<path d="M391.506 131.071C387.992 127.238 383.262 124.739 378.119 123.998L380.321 122.006L377.885 121.883L374.871 124.61L377.595 127.627L380.031 127.751L378.206 125.73C383.394 126.569 388.077 129.334 391.322 133.474C394.566 137.614 396.134 142.825 395.714 148.071C395.293 153.316 392.915 158.211 389.053 161.78C385.19 165.348 380.127 167.33 374.871 167.33V169.026C379.262 169.026 383.557 167.746 387.233 165.342C390.909 162.937 393.805 159.514 395.57 155.488C397.334 151.463 397.889 147.01 397.168 142.674C396.446 138.338 394.479 134.306 391.506 131.071Z" fill="#3F3D56"/>
<path d="M99.0038 131.071C102.518 127.238 107.248 124.739 112.391 123.998L110.19 122.006L112.625 121.883L115.639 124.61L112.915 127.627L110.479 127.751L112.304 125.73C107.116 126.569 102.433 129.334 99.1886 133.474C95.9441 137.614 94.376 142.825 94.7965 148.071C95.2169 153.316 97.5951 158.211 101.458 161.78C105.32 165.348 110.383 167.33 115.639 167.33V169.026C111.248 169.026 106.953 167.746 103.277 165.342C99.6016 162.937 96.7047 159.514 94.9405 155.488C93.1762 151.463 92.621 147.01 93.3425 142.674C94.0641 138.338 96.0313 134.306 99.0038 131.071Z" fill="#3F3D56"/>
<path d="M223.022 11.7695H163.195V13.9953H223.022V11.7695Z" fill="#CCCCCC"/>
<path d="M223.022 18.8208H163.195V21.0466H223.022V18.8208Z" fill="#CCCCCC"/>
<path d="M223.022 25.8676H163.195V28.0934H223.022V25.8676Z" fill="#CCCCCC"/>
<path d="M157.778 13.1475H144.223V26.719H157.778V13.1475Z" fill="#CCCCCC"/>
<path d="M222.817 117.375H162.99V119.601H222.817V117.375Z" fill="#CCCCCC"/>
<path d="M222.817 124.426H162.99V126.652H222.817V124.426Z" fill="#CCCCCC"/>
<path d="M222.817 131.473H162.99V133.698H222.817V131.473Z" fill="#CCCCCC"/>
<path d="M157.573 118.75H144.018V132.322H157.573V118.75Z" fill="#CCCCCC"/>
<path d="M409.406 139.074L422.916 119.435C422.916 119.435 434.68 109.991 431.308 108.152C427.936 106.313 419.109 114.934 419.109 114.934C419.109 114.934 393.641 134.483 397.841 137.211C402.04 139.94 409.406 139.074 409.406 139.074Z" fill="#FFB8B8"/>
<path d="M411.369 113.284H428.865C430.059 106.374 430.059 99.3091 428.865 92.3984H411.369C413.34 99.2206 413.34 106.462 411.369 113.284Z" fill="#FFBE01"/>
<path d="M456.855 114.28C451.598 105.386 441.196 104.971 441.196 104.971C441.196 104.971 431.06 103.673 424.558 117.22C418.497 129.847 410.133 142.038 423.211 144.994L425.573 137.633L427.036 145.542C428.898 145.676 430.767 145.708 432.632 145.638C446.638 145.185 459.976 145.771 459.547 140.738C458.976 134.049 461.914 122.839 456.855 114.28Z" fill="#2F2E41"/>
<path d="M428.901 169.109L422.166 184.619L445.739 188.328C445.739 188.328 456.851 173.155 457.862 172.144L428.901 169.109Z" fill="#FFB8B8"/>
<path d="M440.014 135.392C446.895 135.392 452.473 129.807 452.473 122.917C452.473 116.027 446.895 110.441 440.014 110.441C433.132 110.441 427.554 116.027 427.554 122.917C427.554 129.807 433.132 135.392 440.014 135.392Z" fill="#FFB8B8"/>
<path d="M436.983 132.021C436.983 132.021 442.708 144.833 442.034 146.182C441.361 147.531 454.158 139.101 454.158 139.101C454.158 139.101 448.769 129.998 449.106 128.649L436.983 132.021Z" fill="#FFB8B8"/>
<path d="M455.841 137.416C455.841 137.416 465.943 131.684 471.668 147.531C471.668 147.531 490.526 169.784 487.159 173.83C483.791 177.876 470.995 164.052 470.995 164.052L462.913 155.623C462.913 155.623 451.463 152.588 452.473 146.182C453.483 139.776 455.841 137.416 455.841 137.416Z" fill="#FFB8B8"/>
<path d="M432.269 145.17L408.696 138.427C408.696 138.427 396.236 133.369 396.573 136.404C396.91 139.438 419.472 156.634 426.881 155.622C434.289 154.611 432.269 145.17 432.269 145.17Z" fill="#FFB8B8"/>
<path d="M445.738 142.813C445.738 142.813 437.993 141.802 436.309 143.487C434.626 145.173 431.427 143.656 431.427 143.656L426.038 153.434C426.038 153.434 422.166 158.997 425.197 164.392C428.227 169.787 423.85 176.867 423.85 176.867C423.85 176.867 448.096 176.867 453.147 179.565C458.198 182.262 464.286 157.058 464.286 157.058C464.286 157.058 458.03 149.388 459.714 144.668C461.397 139.947 460.387 136.238 460.387 136.238L452.979 136.913L445.738 142.813Z" fill="#D0CDE1"/>
<path d="M416.777 291.839L419.472 317.802L429.911 312.407L426.543 289.816L416.777 291.839Z" fill="#FFB8B8"/>
<path d="M456.178 291.5L464.944 314.971L473.363 308.902L462.913 286.105L456.178 291.5Z" fill="#FFB8B8"/>
<path d="M429.911 303.641C429.382 305.541 428.588 307.357 427.554 309.036C425.87 311.733 421.829 310.384 421.829 310.384C421.829 310.384 417.115 306.675 416.104 308.361C415.094 310.047 409.706 318.476 409.706 318.476C409.706 318.476 391.858 333.312 407.012 335.672C422.166 338.032 425.197 326.906 425.197 326.906C425.197 326.906 436.646 322.86 436.983 318.813C437.32 314.767 429.911 303.641 429.911 303.641Z" fill="#2F2E41"/>
<path d="M465.27 308.556C465.27 308.556 459.882 306.87 460.218 309.568C460.555 312.265 462.576 323.055 462.576 323.055C462.576 323.055 458.871 338.227 469.311 335.53C479.75 332.833 480.087 318.334 480.087 318.334C480.087 318.334 485.475 299.116 481.434 298.778C477.393 298.441 467.627 297.43 467.627 297.43C467.627 297.43 473.688 307.208 465.27 308.556Z" fill="#2F2E41"/>
<path d="M454.531 113.425L444.255 108.035L430.063 110.24L427.127 123.224L434.436 122.943L436.478 118.173V122.864L439.85 122.734L441.807 115.14L443.031 123.224L455.02 122.979L454.531 113.425Z" fill="#2F2E41"/>
<path d="M449.443 187.316L421.156 180.91C421.156 180.91 407.012 205.186 404.992 225.417C402.971 245.647 393.879 294.199 408.359 294.874C422.839 295.548 431.258 295.548 431.932 294.199C432.605 292.851 424.86 239.578 424.86 239.578C424.86 239.578 441.361 304.989 450.453 300.605C459.545 296.222 469.648 290.49 469.311 287.119C468.974 283.747 447.086 248.007 447.086 248.007L450.116 216.987C450.116 216.987 453.821 204.512 447.422 193.048L449.443 187.316Z" fill="#2F2E41"/>
<path d="M429.057 178.886H446.552C447.746 171.975 447.746 164.911 446.552 158H429.057C431.028 164.822 431.028 172.064 429.057 178.886Z" fill="#FFBE01"/>
<path d="M480.087 163.714L450.453 163.04C450.453 163.04 437.319 152.925 436.982 158.994C436.646 165.063 450.789 168.435 450.789 168.435C450.789 168.435 481.195 179.359 485.861 174.571L480.087 163.714Z" fill="#FFB8B8"/>
<path d="M159.209 83.9292C164.792 83.9292 169.317 79.398 169.317 73.8084C169.317 68.2189 164.792 63.6877 159.209 63.6877C153.626 63.6877 149.101 68.2189 149.101 73.8084C149.101 79.398 153.626 83.9292 159.209 83.9292Z" fill="#FFBE01"/>
<path d="M186.164 82.0789C190.726 82.0789 194.424 78.3762 194.424 73.8088C194.424 69.2413 190.726 65.5387 186.164 65.5387C181.603 65.5387 177.905 69.2413 177.905 73.8088C177.905 78.3762 181.603 82.0789 186.164 82.0789Z" fill="#FFBE01"/>
<path d="M213.12 78.8393C215.895 78.8393 218.145 76.5867 218.145 73.8079C218.145 71.0291 215.895 68.7764 213.12 68.7764C210.344 68.7764 208.095 71.0291 208.095 73.8079C208.095 76.5867 210.344 78.8393 213.12 78.8393Z" fill="#FFBE01"/>
<path d="M325.725 80.3923C328.658 80.3923 331.035 78.0119 331.035 75.0755C331.035 72.1391 328.658 69.7587 325.725 69.7587C322.792 69.7587 320.415 72.1391 320.415 75.0755C320.415 78.0119 322.792 80.3923 325.725 80.3923Z" fill="#FFBE01"/>
<path d="M339.886 79.3017C342.218 79.3017 344.108 77.4091 344.108 75.0745C344.108 72.74 342.218 70.8474 339.886 70.8474C337.555 70.8474 335.664 72.74 335.664 75.0745C335.664 77.4091 337.555 79.3017 339.886 79.3017Z" fill="#FFBE01"/>
<path d="M354.046 77.849C355.575 77.849 356.815 76.6079 356.815 75.0769C356.815 73.5458 355.575 72.3047 354.046 72.3047C352.517 72.3047 351.277 73.5458 351.277 75.0769C351.277 76.6079 352.517 77.849 354.046 77.849Z" fill="#FFBE01"/>
<path d="M246.948 251.934C260.049 251.934 270.669 241.301 270.669 228.184C270.669 215.067 260.049 204.434 246.948 204.434C233.848 204.434 223.228 215.067 223.228 228.184C223.228 241.301 233.848 251.934 246.948 251.934Z" fill="#FFBE01"/>
<path d="M255.773 233.404L246.925 215.512L238.123 233.427L243.097 233.421V240.85H250.795V233.41L255.773 233.404Z" fill="#D0CDE1"/>
</g>
<defs>
<clipPath id="clip0">
<rect width="492" height="336" fill="white"/>
</clipPath>
</defs>
</svg>
