<svg width="22" height="22" viewBox="0 0 22 22" fill="none" xmlns="http://www.w3.org/2000/svg">
<rect width="22" height="22" fill="#E5E5E5"/>
<g clip-path="url(#clip0)">
<rect x="-1112" y="-52" width="1920" height="4272" fill="white"/>
<g clip-path="url(#clip1)">
<path opacity="0.2" d="M104.841 126.346C151.157 115.386 197.613 102.728 236.151 114.961C274.617 127.265 305.164 164.459 329.206 203.35C353.248 242.241 370.713 282.758 383.088 329.356C395.391 376.025 402.604 428.775 383.795 469.788C365.127 510.8 320.509 540.003 275.183 546.862C229.858 553.721 183.825 538.235 146.914 521.406C110.144 504.577 82.4965 486.405 48.4846 469.505C14.4728 452.605 -26.1151 436.907 -38.9138 409.259C-51.7831 381.682 -36.9339 342.084 -31.4892 297.89C-26.0444 253.554 -29.8628 204.622 -8.72031 175.56C12.3515 146.428 58.5255 137.306 104.841 126.346Z" fill="#FFBE01"/>
</g>
<path d="M14.8207 13.3276L13.5852 12.0892C13.3391 11.8436 12.9316 11.851 12.6769 12.1063L12.0545 12.7301C12.0152 12.7083 11.9745 12.6856 11.9317 12.6616C11.5386 12.4433 11.0006 12.1441 10.4345 11.5763C9.86673 11.0073 9.56795 10.4673 9.34949 10.0731C9.32644 10.0313 9.30435 9.99103 9.28254 9.9528L9.70029 9.53472L9.90567 9.32862C10.1607 9.07293 10.1677 8.6646 9.92224 8.41824L8.68676 7.17969C8.44125 6.93367 8.03355 6.94113 7.7785 7.19682L7.4303 7.54782L7.43982 7.55728C7.32306 7.7066 7.2255 7.87881 7.15289 8.06453C7.08597 8.2413 7.0443 8.40999 7.02524 8.57903C6.86211 9.93453 7.48013 11.1734 9.15737 12.8544C11.4758 15.178 13.3442 15.0024 13.4248 14.9939C13.6003 14.9728 13.7686 14.9308 13.9396 14.8642C14.1232 14.7923 14.295 14.6947 14.4438 14.5779L14.4514 14.5847L14.8042 14.2385C15.0587 13.9828 15.066 13.5744 14.8207 13.3276Z" fill="#FFB900"/>
<circle cx="11" cy="11" r="10.75" stroke="#FFB900" stroke-width="0.5"/>
</g>
<defs>
<clipPath id="clip0">
<rect x="-1112" y="-52" width="1920" height="4272" fill="white"/>
</clipPath>
<clipPath id="clip1">
<rect x="-144" y="19" width="600" height="600" fill="white"/>
</clipPath>
</defs>
</svg>
