<?xml version="1.0" encoding="UTF-8" standalone="no"?>
<!DOCTYPE svg PUBLIC "-//W3C//DTD SVG 1.1//EN" "http://www.w3.org/Graphics/SVG/1.1/DTD/svg11.dtd">
<svg version="1.1" xmlns="http://www.w3.org/2000/svg" xmlns:xlink="http://www.w3.org/1999/xlink" preserveAspectRatio="xMidYMid meet" viewBox="0 0 640 640" width="640" height="640"><defs><path d="M-146.45 -15.45C-146.45 -15.45 -146.45 -15.45 -146.45 -15.45C-146.45 344.55 -146.45 544.55 -146.45 584.55C-146.45 584.55 -146.45 584.55 -146.45 584.55C-506.45 584.55 -706.45 584.55 -746.45 584.55C-746.45 584.55 -746.45 584.55 -746.45 584.55C-746.45 224.55 -746.45 24.55 -746.45 -15.45C-746.45 -15.45 -746.45 -15.45 -746.45 -15.45C-386.45 -15.45 -186.45 -15.45 -146.45 -15.45Z" id="b16Bf3KRkW"></path><path d="M-15.36 -720.86C-15.36 -720.86 -15.36 -720.86 -15.36 -720.86C-15.36 1815.64 -15.36 3224.8 -15.36 3506.64C-15.36 3506.64 -15.36 3506.64 -15.36 3506.64C-1155.36 3506.64 -1788.7 3506.64 -1915.36 3506.64C-1915.36 3506.64 -1915.36 3506.64 -1915.36 3506.64C-1915.36 970.14 -1915.36 -439.03 -1915.36 -720.86C-1915.36 -720.86 -1915.36 -720.86 -1915.36 -720.86C-775.36 -720.86 -142.03 -720.86 -15.36 -720.86Z" id="a79t4HAG2Q"></path><path d="M380.15 95.96C418.62 108.27 449.16 145.46 473.21 184.35C497.25 223.24 514.71 263.76 527.09 310.36C539.39 357.03 546.6 409.78 527.79 450.79C509.13 491.8 464.51 521 419.18 527.86C373.86 534.72 327.83 519.24 290.91 502.41C254.14 485.58 226.5 467.41 192.49 450.51C158.47 433.61 117.89 417.91 105.09 390.26C92.22 362.68 107.07 323.08 112.51 278.89C117.96 234.55 114.14 185.62 135.28 156.56C156.35 127.43 202.53 118.31 248.84 107.35C295.16 96.39 341.61 83.73 380.15 95.96Z" id="f25iBxAfNa"></path><path d="M365.28 263.38L365.28 269.14L562 269.14L562 263.38L365.28 263.38Z" id="bdQ1GesAW"></path><path d="M381.54 215.23L381.54 264.95L431.38 264.95L431.38 215.23L381.54 215.23Z" id="aaELZrpN8"></path><path d="M391.51 225.18L391.51 255.01L421.41 255.01L421.41 225.18L391.51 225.18Z" id="c9RmkG2fd"></path><path d="M493.28 215.23L493.28 264.95L505.87 264.95L505.87 215.23L493.28 215.23Z" id="d1A6Egwata"></path><path d="M493.28 223.08L493.28 228.84L505.87 228.84L505.87 223.08L493.28 223.08Z" id="b1OMuHwVa6"></path><path d="M493.28 248.2L493.28 253.96L505.87 253.96L505.87 248.2L493.28 248.2Z" id="cJ9B9znEb"></path><path d="M473.87 215.23L473.87 264.95L486.46 264.95L486.46 215.23L473.87 215.23Z" id="b17TpehIGM"></path><path d="M473.87 223.08L473.87 228.84L486.46 228.84L486.46 223.08L473.87 223.08Z" id="ak1jbOWUn"></path><path d="M473.87 248.2L473.87 253.96L486.46 253.96L486.46 248.2L473.87 248.2Z" id="g6lqbLQBM"></path><path d="M505.44 220.6L527.55 265.15L538.83 259.58L516.72 215.03L505.44 220.6Z" id="amGw0yKhH"></path><path d="M508.93 227.63L511.49 232.79L522.77 227.22L520.21 222.06L508.93 227.63Z" id="a2Tqujh1kb"></path><path d="M520.1 250.15L522.66 255.3L533.94 249.73L531.38 244.57L520.1 250.15Z" id="bwzrEHYrQ"></path><path d="M406.51 246.14L412.85 257.1L400.17 257.1L387.49 257.1L393.83 246.14L400.17 235.19L406.51 246.14Z" id="dVoe9IKb"></path><path d="M417.52 248.24L423.86 259.19L411.18 259.19L398.5 259.19L404.84 248.24L411.18 237.28L417.52 248.24Z" id="a55YLzTorc"></path><path d="M419.32 230.41C419.32 228.39 417.67 226.75 415.64 226.75C413.62 226.75 411.97 228.39 411.97 230.41C411.97 232.43 413.62 234.07 415.64 234.07C417.67 234.07 419.32 232.43 419.32 230.41Z" id="b1w3L3G0ia"></path><path d="M562 190.11L562 184.35L365.28 184.35L365.28 190.11L562 190.11Z" id="igcM8nzOm"></path><path d="M545.74 185.92L545.74 136.2L495.9 136.2L495.9 185.92L545.74 185.92Z" id="f5slC4Y3kR"></path><path d="M535.77 175.98L535.77 146.15L505.87 146.15L505.87 175.98L535.77 175.98Z" id="a1CYNoLRZ"></path><path d="M434 185.92L434 136.2L421.41 136.2L421.41 185.92L434 185.92Z" id="e1aZB7eiTX"></path><path d="M434 149.81L434 144.06L421.41 144.06L421.41 149.81L434 149.81Z" id="h2YAGgD5tG"></path><path d="M434 174.93L434 169.18L421.41 169.18L421.41 174.93L434 174.93Z" id="akAoGys3"></path><path d="M453.41 185.92L453.41 136.2L440.82 136.2L440.82 185.92L453.41 185.92Z" id="eY8jOYYEM"></path><path d="M453.41 149.81L453.41 144.06L440.82 144.06L440.82 149.81L453.41 149.81Z" id="a1U8VHTymH"></path><path d="M453.41 174.93L453.41 169.18L440.82 169.18L440.82 174.93L453.41 174.93Z" id="cRXlIYpvJ"></path><path d="M399.74 186.13L421.85 141.57L410.57 136L388.45 180.56L399.74 186.13Z" id="assbRYobV"></path><path d="M415.8 153.77L418.36 148.61L407.07 143.03L404.51 148.19L415.8 153.77Z" id="bvkxMxyPE"></path><path d="M404.62 176.28L407.18 171.12L395.9 165.55L393.34 170.71L404.62 176.28Z" id="bFiB2K4O2"></path><path d="M520.78 167.12L514.44 178.08L527.12 178.08L539.8 178.08L533.46 167.12L527.12 156.16L520.78 167.12Z" id="euxOdhBN6"></path><path d="M509.76 169.21L503.42 180.17L516.1 180.17L528.78 180.17L522.44 169.21L516.1 158.25L509.76 169.21Z" id="i18fSJo7Zc"></path><path d="M515.31 151.38C515.31 149.36 513.67 147.72 511.64 147.72C509.61 147.72 507.97 149.36 507.97 151.38C507.97 153.41 509.61 155.04 511.64 155.04C513.67 155.04 515.31 153.41 515.31 151.38Z" id="bR0GvTHSC"></path><path d="M562 348.16L562 342.4L365.28 342.4L365.28 348.16L562 348.16Z" id="e1rD1DWTaG"></path><path d="M545.74 343.97L545.74 294.26L495.9 294.26L495.9 343.97L545.74 343.97Z" id="cA65MPuB4"></path><path d="M535.77 334.03L535.77 304.2L505.87 304.2L505.87 334.03L535.77 334.03Z" id="bG5VJhxZm"></path><path d="M434 343.97L434 294.26L421.41 294.26L421.41 343.97L434 343.97Z" id="a1ra61KMHA"></path><path d="M434 307.86L434 302.11L421.41 302.11L421.41 307.86L434 307.86Z" id="b5eLHSvqC"></path><path d="M434 332.98L434 327.23L421.41 327.23L421.41 332.98L434 332.98Z" id="e1pR1j8sjn"></path><path d="M453.41 343.97L453.41 294.26L440.82 294.26L440.82 343.97L453.41 343.97Z" id="i3S1Gx5o4"></path><path d="M453.41 307.86L453.41 302.11L440.82 302.11L440.82 307.86L453.41 307.86Z" id="a2jqYmzqA6"></path><path d="M453.41 332.98L453.41 327.23L440.82 327.23L440.82 332.98L453.41 332.98Z" id="f2QqQKqyr"></path><path d="M399.74 344.18L421.85 299.62L410.57 294.05L388.45 338.61L399.74 344.18Z" id="bU9uSLQRU"></path><path d="M415.8 311.82L418.36 306.66L407.07 301.08L404.51 306.25L415.8 311.82Z" id="cgolrrrKO"></path><path d="M404.62 334.33L407.18 329.17L395.9 323.6L393.34 328.76L404.62 334.33Z" id="aPZ8VLEFh"></path><path d="M520.78 325.17L514.43 336.12L527.12 336.12L539.8 336.12L533.46 325.17L527.12 314.21L520.78 325.17Z" id="blrRWB8IC"></path><path d="M509.76 327.26L503.42 338.22L516.1 338.22L528.78 338.22L522.44 327.26L516.1 316.31L509.76 327.26Z" id="c1dXO7Cq3"></path><path d="M515.31 309.43C515.31 307.41 513.67 305.77 511.64 305.77C509.61 305.77 507.97 307.41 507.97 309.43C507.97 311.46 509.61 313.1 511.64 313.1C513.67 313.1 515.31 311.46 515.31 309.43Z" id="bzRRXD5x5"></path><path d="M557.47 463.58C557.47 454.51 453.72 447.16 325.73 447.16C197.75 447.16 94 454.51 94 463.58C94 472.65 197.75 480 325.73 480C453.72 480 557.47 472.65 557.47 463.58Z" id="a3SuVSRhBm"></path><path d="M384.32 472.78C404.08 456.14 421.13 439.5 401.37 422.86C439.91 430.79 445.31 429.99 488.17 422.86C478.23 439.5 496.83 456.14 506.77 472.78C468.99 466.07 427.67 467.18 384.32 472.78Z" id="d1PYmf3SlA"></path><path d="M384.32 472.78C404.08 456.14 421.13 439.5 401.37 422.86C439.91 430.79 445.31 429.99 488.17 422.86C478.23 439.5 496.83 456.14 506.77 472.78C468.99 466.07 427.67 467.18 384.32 472.78Z" id="b5BIE9SzwG"></path><path d="M393.54 465.68C410.32 452.4 424.81 439.11 408.03 425.83C440.76 432.16 445.35 431.52 481.76 425.83C473.31 439.11 489.11 452.4 497.56 465.68C465.46 460.32 430.36 461.21 393.54 465.68Z" id="a3A4woKvV"></path><path d="M502.44 427.22C502.44 417.79 494.78 410.15 485.33 410.15C475.89 410.15 468.23 417.79 468.23 427.22C468.23 436.64 475.89 444.28 485.33 444.28C494.78 444.28 502.44 436.64 502.44 427.22Z" id="chHgOl87V"></path><path d="M419.55 409.4L425.47 426.47L408.35 436.98L388.6 407.43L407.04 407.43L407.7 407.43L419.55 409.4Z" id="cehJ6Hp6y"></path><path d="M468.92 406.11C468.92 390.88 456.54 378.53 441.27 378.53C426 378.53 413.62 390.88 413.62 406.11C413.62 421.35 426 433.7 441.27 433.7C456.54 433.7 468.92 421.35 468.92 406.11Z" id="a2HtcD6rzl"></path><path d="M209.54 311.54C197.69 310.22 192.42 308.91 192.42 308.91C192.42 308.91 184.52 319.42 188.47 324.02C190.68 326.66 193.36 328.89 196.37 330.58C196.37 330.58 203.61 328.61 208.88 330.58C214.15 332.55 267.47 341.09 276.69 333.21C285.9 325.33 288.54 305.63 288.54 305.63C272.74 306.81 221.39 312.85 209.54 311.54Z" id="b3ggydtOC"></path><path d="M241.14 384.44C241.14 383.91 241.14 379.71 241.14 379.18C241.14 379.18 232.41 394.46 229.29 397.57C225.67 401.18 212.83 433.7 213.49 436.98C214.15 440.26 213.49 441.58 213.49 441.58C212.21 441.44 205.85 440.79 194.4 439.61C194.4 436.06 194.4 434.09 194.4 433.7C194.4 433.7 204.6 403.15 205.26 395.93C205.92 388.71 230.6 338.46 230.6 338.46C230.6 338.46 239.82 319.42 255.62 338.46C271.42 357.51 272.74 370.64 272.74 370.64C274.1 373.27 280.9 386.41 293.15 410.05L293.15 452.09C263.74 443.77 246.4 421.22 241.14 384.44Z" id="f4JyRDkH64"></path><path d="M173.33 299.71C173.33 299.71 153.58 285.27 158.19 299.71C162.8 314.16 183.86 345.69 189.79 342.41C195.71 339.12 202.84 330.97 201.25 329.79C199.66 328.61 189.13 320.08 194.4 306.94C190.18 305.49 175.44 300.44 173.33 299.71Z" id="a2lvQE8gk9"></path><path d="M179.94 438.11C179.94 438.11 159.37 441.26 170.84 447.18C182.31 453.1 213.95 459.41 215.53 453.89C217.11 448.37 216.48 439.2 214.82 439.44C213.16 439.68 201.69 440.87 196.94 429.82C193.54 431.48 181.64 437.28 179.94 438.11Z" id="bw7Bu7JV1"></path><path d="M290.51 453.4C305 461.28 406.38 462.6 414.28 448.15C422.18 433.7 418.23 433.7 418.23 433.7C416.83 432.12 409.8 424.24 397.16 410.05C407.43 409.27 413.14 408.83 414.28 408.74C414.28 408.74 414.28 403.49 408.36 402.83C402.43 402.17 384 395.61 368.2 400.2C352.4 404.8 343.18 391.01 343.18 391.01C339.27 392.19 319.74 398.1 284.59 408.74C278.88 433.26 280.86 448.15 290.51 453.4Z" id="f6nBu3xfl"></path><path d="M262.2 354.89L339.23 345.69L353.05 290.52L273.4 293.8L262.2 354.89Z" id="a6AVFvS8A"></path><path d="M266.48 350.61L336.6 342.4L350.09 292.82L275.7 296.1L266.48 350.61Z" id="ax8DFxDBR"></path><path d="M262.2 354.88L260.89 357.51L281.96 415.96L283.94 415.21L284.59 411.37L264.84 355.54L262.2 354.88Z" id="a6C8bqhN"></path><path d="M283.27 415.31L362.93 403.48L339.23 345.69L262.2 354.23L283.27 415.31Z" id="k1FCkGVina"></path><path d="M272.74 355.54L331.33 348.97L330.67 345.69L272.74 352.26L272.74 355.54Z" id="g3Nn1aO1rT"></path><path d="M283.27 384.44L343.18 377.22L332.65 352.91L274.06 358.83L283.27 384.44Z" id="bODgSHCA5"></path><path d="M347.13 389.69C347.13 389.69 331.99 363.42 324.09 368.68C316.19 373.93 340.55 399.54 340.55 399.54C341.07 399.54 343.71 399.54 348.45 399.54L349.11 394.95C347.92 391.79 347.26 390.04 347.13 389.69Z" id="gILoRCh8Y"></path><path d="M297.1 391.01C297.1 391.01 291.83 366.71 301.05 368.02C310.26 369.33 312.9 392.32 312.9 392.32C312.85 392.67 312.63 394.42 312.24 397.58L299.07 398.89C297.89 394.16 297.23 391.53 297.1 391.01Z" id="aRa74rfxZ"></path><path d="M297.1 396.92C296.44 400.86 293.15 459.97 309.61 461.94C326.06 463.91 407.7 472.45 399.14 452.09C390.58 431.73 377.41 434.35 377.41 434.35C373.68 434.75 355.03 436.72 321.46 440.27L314.87 395.6C303.46 393.85 297.54 394.29 297.1 396.92Z" id="a2ov9YfArg"></path><path d="M349.11 391.01L337.58 399.87L352.07 415.64L366.55 403.16L349.11 391.01Z" id="b2a8kROnS7"></path><path d="M322.44 439.94L367.87 437.31L328.37 436.65L319.81 414.98L322.44 439.94Z" id="a36EM45XaT"></path><path d="M487.84 411.13C487.84 392.99 473.1 378.29 454.92 378.29C436.74 378.29 422 392.99 422 411.13C422 429.26 436.74 443.96 454.92 443.96C473.1 443.96 487.84 429.26 487.84 411.13Z" id="bhS8YWf1"></path><path d="M326.39 313.73L330.34 298.73L288.21 300L285.58 315.15L326.39 313.73Z" id="aHv6h2jme"></path><path d="M336.93 321.72L337.58 319.09L275.7 321.26L275.04 323.69L336.93 321.72Z" id="b1mi0AjneQ"></path><path d="M335.61 328.28L336.27 325.66L274.38 327.83L273.73 330.25L335.61 328.28Z" id="b1itLNem0H"></path><path d="M334.95 333.54L335.61 330.91L273.73 333.08L273.07 335.51L334.95 333.54Z" id="cbAYHy1YW"></path></defs><g><g><g><use xlink:href="#b16Bf3KRkW" opacity="1" fill="#e5e5e5" fill-opacity="1"></use><g><use xlink:href="#b16Bf3KRkW" opacity="1" fill-opacity="0" stroke="#000000" stroke-width="1" stroke-opacity="0"></use></g></g><g><use xlink:href="#a79t4HAG2Q" opacity="1" fill="#ffffff" fill-opacity="1"></use><g><use xlink:href="#a79t4HAG2Q" opacity="1" fill-opacity="0" stroke="#000000" stroke-width="1" stroke-opacity="0"></use></g></g><g><use xlink:href="#f25iBxAfNa" opacity="1" fill="#ffbe01" fill-opacity="1"></use><g><use xlink:href="#f25iBxAfNa" opacity="1" fill-opacity="0" stroke="#000000" stroke-width="1" stroke-opacity="0"></use></g></g><g><use xlink:href="#bdQ1GesAW" opacity="1" fill="#e6e6e6" fill-opacity="1"></use><g><use xlink:href="#bdQ1GesAW" opacity="1" fill-opacity="0" stroke="#000000" stroke-width="1" stroke-opacity="0"></use></g></g><g><use xlink:href="#aaELZrpN8" opacity="1" fill="#e6e6e6" fill-opacity="1"></use><g><use xlink:href="#aaELZrpN8" opacity="1" fill-opacity="0" stroke="#000000" stroke-width="1" stroke-opacity="0"></use></g></g><g><use xlink:href="#c9RmkG2fd" opacity="1" fill="#cccccc" fill-opacity="1"></use><g><use xlink:href="#c9RmkG2fd" opacity="1" fill-opacity="0" stroke="#000000" stroke-width="1" stroke-opacity="0"></use></g></g><g><use xlink:href="#d1A6Egwata" opacity="1" fill="#e6e6e6" fill-opacity="1"></use><g><use xlink:href="#d1A6Egwata" opacity="1" fill-opacity="0" stroke="#000000" stroke-width="1" stroke-opacity="0"></use></g></g><g><use xlink:href="#b1OMuHwVa6" opacity="1" fill="#cccccc" fill-opacity="1"></use><g><use xlink:href="#b1OMuHwVa6" opacity="1" fill-opacity="0" stroke="#000000" stroke-width="1" stroke-opacity="0"></use></g></g><g><use xlink:href="#cJ9B9znEb" opacity="1" fill="#cccccc" fill-opacity="1"></use><g><use xlink:href="#cJ9B9znEb" opacity="1" fill-opacity="0" stroke="#000000" stroke-width="1" stroke-opacity="0"></use></g></g><g><use xlink:href="#b17TpehIGM" opacity="1" fill="#e6e6e6" fill-opacity="1"></use><g><use xlink:href="#b17TpehIGM" opacity="1" fill-opacity="0" stroke="#000000" stroke-width="1" stroke-opacity="0"></use></g></g><g><use xlink:href="#ak1jbOWUn" opacity="1" fill="#cccccc" fill-opacity="1"></use><g><use xlink:href="#ak1jbOWUn" opacity="1" fill-opacity="0" stroke="#000000" stroke-width="1" stroke-opacity="0"></use></g></g><g><use xlink:href="#g6lqbLQBM" opacity="1" fill="#cccccc" fill-opacity="1"></use><g><use xlink:href="#g6lqbLQBM" opacity="1" fill-opacity="0" stroke="#000000" stroke-width="1" stroke-opacity="0"></use></g></g><g><use xlink:href="#amGw0yKhH" opacity="1" fill="#e6e6e6" fill-opacity="1"></use><g><use xlink:href="#amGw0yKhH" opacity="1" fill-opacity="0" stroke="#000000" stroke-width="1" stroke-opacity="0"></use></g></g><g><use xlink:href="#a2Tqujh1kb" opacity="1" fill="#cccccc" fill-opacity="1"></use><g><use xlink:href="#a2Tqujh1kb" opacity="1" fill-opacity="0" stroke="#000000" stroke-width="1" stroke-opacity="0"></use></g></g><g><use xlink:href="#bwzrEHYrQ" opacity="1" fill="#cccccc" fill-opacity="1"></use><g><use xlink:href="#bwzrEHYrQ" opacity="1" fill-opacity="0" stroke="#000000" stroke-width="1" stroke-opacity="0"></use></g></g><g><use xlink:href="#dVoe9IKb" opacity="1" fill="#e6e6e6" fill-opacity="1"></use><g><use xlink:href="#dVoe9IKb" opacity="1" fill-opacity="0" stroke="#000000" stroke-width="1" stroke-opacity="0"></use></g></g><g><use xlink:href="#a55YLzTorc" opacity="1" fill="#e6e6e6" fill-opacity="1"></use><g><use xlink:href="#a55YLzTorc" opacity="1" fill-opacity="0" stroke="#000000" stroke-width="1" stroke-opacity="0"></use></g></g><g><use xlink:href="#b1w3L3G0ia" opacity="1" fill="#e6e6e6" fill-opacity="1"></use><g><use xlink:href="#b1w3L3G0ia" opacity="1" fill-opacity="0" stroke="#000000" stroke-width="1" stroke-opacity="0"></use></g></g><g><use xlink:href="#igcM8nzOm" opacity="1" fill="#e6e6e6" fill-opacity="1"></use><g><use xlink:href="#igcM8nzOm" opacity="1" fill-opacity="0" stroke="#000000" stroke-width="1" stroke-opacity="0"></use></g></g><g><use xlink:href="#f5slC4Y3kR" opacity="1" fill="#e6e6e6" fill-opacity="1"></use><g><use xlink:href="#f5slC4Y3kR" opacity="1" fill-opacity="0" stroke="#000000" stroke-width="1" stroke-opacity="0"></use></g></g><g><use xlink:href="#a1CYNoLRZ" opacity="1" fill="#cccccc" fill-opacity="1"></use><g><use xlink:href="#a1CYNoLRZ" opacity="1" fill-opacity="0" stroke="#000000" stroke-width="1" stroke-opacity="0"></use></g></g><g><use xlink:href="#e1aZB7eiTX" opacity="1" fill="#e6e6e6" fill-opacity="1"></use><g><use xlink:href="#e1aZB7eiTX" opacity="1" fill-opacity="0" stroke="#000000" stroke-width="1" stroke-opacity="0"></use></g></g><g><use xlink:href="#h2YAGgD5tG" opacity="1" fill="#cccccc" fill-opacity="1"></use><g><use xlink:href="#h2YAGgD5tG" opacity="1" fill-opacity="0" stroke="#000000" stroke-width="1" stroke-opacity="0"></use></g></g><g><use xlink:href="#akAoGys3" opacity="1" fill="#cccccc" fill-opacity="1"></use><g><use xlink:href="#akAoGys3" opacity="1" fill-opacity="0" stroke="#000000" stroke-width="1" stroke-opacity="0"></use></g></g><g><use xlink:href="#eY8jOYYEM" opacity="1" fill="#e6e6e6" fill-opacity="1"></use><g><use xlink:href="#eY8jOYYEM" opacity="1" fill-opacity="0" stroke="#000000" stroke-width="1" stroke-opacity="0"></use></g></g><g><use xlink:href="#a1U8VHTymH" opacity="1" fill="#cccccc" fill-opacity="1"></use><g><use xlink:href="#a1U8VHTymH" opacity="1" fill-opacity="0" stroke="#000000" stroke-width="1" stroke-opacity="0"></use></g></g><g><use xlink:href="#cRXlIYpvJ" opacity="1" fill="#cccccc" fill-opacity="1"></use><g><use xlink:href="#cRXlIYpvJ" opacity="1" fill-opacity="0" stroke="#000000" stroke-width="1" stroke-opacity="0"></use></g></g><g><use xlink:href="#assbRYobV" opacity="1" fill="#e6e6e6" fill-opacity="1"></use><g><use xlink:href="#assbRYobV" opacity="1" fill-opacity="0" stroke="#000000" stroke-width="1" stroke-opacity="0"></use></g></g><g><use xlink:href="#bvkxMxyPE" opacity="1" fill="#cccccc" fill-opacity="1"></use><g><use xlink:href="#bvkxMxyPE" opacity="1" fill-opacity="0" stroke="#000000" stroke-width="1" stroke-opacity="0"></use></g></g><g><use xlink:href="#bFiB2K4O2" opacity="1" fill="#cccccc" fill-opacity="1"></use><g><use xlink:href="#bFiB2K4O2" opacity="1" fill-opacity="0" stroke="#000000" stroke-width="1" stroke-opacity="0"></use></g></g><g><use xlink:href="#euxOdhBN6" opacity="1" fill="#e6e6e6" fill-opacity="1"></use><g><use xlink:href="#euxOdhBN6" opacity="1" fill-opacity="0" stroke="#000000" stroke-width="1" stroke-opacity="0"></use></g></g><g><use xlink:href="#i18fSJo7Zc" opacity="1" fill="#e6e6e6" fill-opacity="1"></use><g><use xlink:href="#i18fSJo7Zc" opacity="1" fill-opacity="0" stroke="#000000" stroke-width="1" stroke-opacity="0"></use></g></g><g><use xlink:href="#bR0GvTHSC" opacity="1" fill="#e6e6e6" fill-opacity="1"></use><g><use xlink:href="#bR0GvTHSC" opacity="1" fill-opacity="0" stroke="#000000" stroke-width="1" stroke-opacity="0"></use></g></g><g><use xlink:href="#e1rD1DWTaG" opacity="1" fill="#e6e6e6" fill-opacity="1"></use><g><use xlink:href="#e1rD1DWTaG" opacity="1" fill-opacity="0" stroke="#000000" stroke-width="1" stroke-opacity="0"></use></g></g><g><use xlink:href="#cA65MPuB4" opacity="1" fill="#e6e6e6" fill-opacity="1"></use><g><use xlink:href="#cA65MPuB4" opacity="1" fill-opacity="0" stroke="#000000" stroke-width="1" stroke-opacity="0"></use></g></g><g><use xlink:href="#bG5VJhxZm" opacity="1" fill="#cccccc" fill-opacity="1"></use><g><use xlink:href="#bG5VJhxZm" opacity="1" fill-opacity="0" stroke="#000000" stroke-width="1" stroke-opacity="0"></use></g></g><g><use xlink:href="#a1ra61KMHA" opacity="1" fill="#e6e6e6" fill-opacity="1"></use><g><use xlink:href="#a1ra61KMHA" opacity="1" fill-opacity="0" stroke="#000000" stroke-width="1" stroke-opacity="0"></use></g></g><g><use xlink:href="#b5eLHSvqC" opacity="1" fill="#cccccc" fill-opacity="1"></use><g><use xlink:href="#b5eLHSvqC" opacity="1" fill-opacity="0" stroke="#000000" stroke-width="1" stroke-opacity="0"></use></g></g><g><use xlink:href="#e1pR1j8sjn" opacity="1" fill="#cccccc" fill-opacity="1"></use><g><use xlink:href="#e1pR1j8sjn" opacity="1" fill-opacity="0" stroke="#000000" stroke-width="1" stroke-opacity="0"></use></g></g><g><use xlink:href="#i3S1Gx5o4" opacity="1" fill="#e6e6e6" fill-opacity="1"></use><g><use xlink:href="#i3S1Gx5o4" opacity="1" fill-opacity="0" stroke="#000000" stroke-width="1" stroke-opacity="0"></use></g></g><g><use xlink:href="#a2jqYmzqA6" opacity="1" fill="#cccccc" fill-opacity="1"></use><g><use xlink:href="#a2jqYmzqA6" opacity="1" fill-opacity="0" stroke="#000000" stroke-width="1" stroke-opacity="0"></use></g></g><g><use xlink:href="#f2QqQKqyr" opacity="1" fill="#cccccc" fill-opacity="1"></use><g><use xlink:href="#f2QqQKqyr" opacity="1" fill-opacity="0" stroke="#000000" stroke-width="1" stroke-opacity="0"></use></g></g><g><use xlink:href="#bU9uSLQRU" opacity="1" fill="#e6e6e6" fill-opacity="1"></use><g><use xlink:href="#bU9uSLQRU" opacity="1" fill-opacity="0" stroke="#000000" stroke-width="1" stroke-opacity="0"></use></g></g><g><use xlink:href="#cgolrrrKO" opacity="1" fill="#cccccc" fill-opacity="1"></use><g><use xlink:href="#cgolrrrKO" opacity="1" fill-opacity="0" stroke="#000000" stroke-width="1" stroke-opacity="0"></use></g></g><g><use xlink:href="#aPZ8VLEFh" opacity="1" fill="#cccccc" fill-opacity="1"></use><g><use xlink:href="#aPZ8VLEFh" opacity="1" fill-opacity="0" stroke="#000000" stroke-width="1" stroke-opacity="0"></use></g></g><g><use xlink:href="#blrRWB8IC" opacity="1" fill="#e6e6e6" fill-opacity="1"></use><g><use xlink:href="#blrRWB8IC" opacity="1" fill-opacity="0" stroke="#000000" stroke-width="1" stroke-opacity="0"></use></g></g><g><use xlink:href="#c1dXO7Cq3" opacity="1" fill="#e6e6e6" fill-opacity="1"></use><g><use xlink:href="#c1dXO7Cq3" opacity="1" fill-opacity="0" stroke="#000000" stroke-width="1" stroke-opacity="0"></use></g></g><g><use xlink:href="#bzRRXD5x5" opacity="1" fill="#e6e6e6" fill-opacity="1"></use><g><use xlink:href="#bzRRXD5x5" opacity="1" fill-opacity="0" stroke="#000000" stroke-width="1" stroke-opacity="0"></use></g></g><g><use xlink:href="#a3SuVSRhBm" opacity="1" fill="#e6e6e6" fill-opacity="1"></use><g><use xlink:href="#a3SuVSRhBm" opacity="1" fill-opacity="0" stroke="#000000" stroke-width="1" stroke-opacity="0"></use></g></g><g><use xlink:href="#d1PYmf3SlA" opacity="1" fill="#ffbe01" fill-opacity="1"></use><g><use xlink:href="#d1PYmf3SlA" opacity="1" fill-opacity="0" stroke="#000000" stroke-width="1" stroke-opacity="0"></use></g></g><g><use xlink:href="#b5BIE9SzwG" opacity="1" fill="#000000" fill-opacity="1"></use><g><use xlink:href="#b5BIE9SzwG" opacity="1" fill-opacity="0" stroke="#000000" stroke-width="1" stroke-opacity="0"></use></g></g><g><use xlink:href="#a3A4woKvV" opacity="1" fill="#ffbe01" fill-opacity="1"></use><g><use xlink:href="#a3A4woKvV" opacity="1" fill-opacity="0" stroke="#000000" stroke-width="1" stroke-opacity="0"></use></g></g><g><use xlink:href="#chHgOl87V" opacity="1" fill="#2f2e41" fill-opacity="1"></use><g><use xlink:href="#chHgOl87V" opacity="1" fill-opacity="0" stroke="#000000" stroke-width="1" stroke-opacity="0"></use></g></g><g><use xlink:href="#cehJ6Hp6y" opacity="1" fill="#ffb8b8" fill-opacity="1"></use><g><use xlink:href="#cehJ6Hp6y" opacity="1" fill-opacity="0" stroke="#000000" stroke-width="1" stroke-opacity="0"></use></g></g><g><use xlink:href="#a2HtcD6rzl" opacity="1" fill="#ffb8b8" fill-opacity="1"></use><g><use xlink:href="#a2HtcD6rzl" opacity="1" fill-opacity="0" stroke="#000000" stroke-width="1" stroke-opacity="0"></use></g></g><g><use xlink:href="#b3ggydtOC" opacity="1" fill="#2f2e41" fill-opacity="1"></use><g><use xlink:href="#b3ggydtOC" opacity="1" fill-opacity="0" stroke="#000000" stroke-width="1" stroke-opacity="0"></use></g></g><g><use xlink:href="#f4JyRDkH64" opacity="1" fill="#2f2e41" fill-opacity="1"></use><g><use xlink:href="#f4JyRDkH64" opacity="1" fill-opacity="0" stroke="#000000" stroke-width="1" stroke-opacity="0"></use></g></g><g><use xlink:href="#a2lvQE8gk9" opacity="1" fill="#2f2e41" fill-opacity="1"></use><g><use xlink:href="#a2lvQE8gk9" opacity="1" fill-opacity="0" stroke="#000000" stroke-width="1" stroke-opacity="0"></use></g></g><g><use xlink:href="#bw7Bu7JV1" opacity="1" fill="#2f2e41" fill-opacity="1"></use><g><use xlink:href="#bw7Bu7JV1" opacity="1" fill-opacity="0" stroke="#000000" stroke-width="1" stroke-opacity="0"></use></g></g><g><use xlink:href="#f6nBu3xfl" opacity="1" fill="#575a89" fill-opacity="1"></use><g><use xlink:href="#f6nBu3xfl" opacity="1" fill-opacity="0" stroke="#000000" stroke-width="1" stroke-opacity="0"></use></g></g><g><use xlink:href="#a6AVFvS8A" opacity="1" fill="#3f3d56" fill-opacity="1"></use><g><use xlink:href="#a6AVFvS8A" opacity="1" fill-opacity="0" stroke="#000000" stroke-width="1" stroke-opacity="0"></use></g></g><g><use xlink:href="#ax8DFxDBR" opacity="1" fill="#ffffff" fill-opacity="1"></use><g><use xlink:href="#ax8DFxDBR" opacity="1" fill-opacity="0" stroke="#000000" stroke-width="1" stroke-opacity="0"></use></g></g><g><use xlink:href="#a6C8bqhN" opacity="1" fill="#b3b3b3" fill-opacity="1"></use><g><use xlink:href="#a6C8bqhN" opacity="1" fill-opacity="0" stroke="#000000" stroke-width="1" stroke-opacity="0"></use></g></g><g><use xlink:href="#k1FCkGVina" opacity="1" fill="#d0cde1" fill-opacity="1"></use><g><use xlink:href="#k1FCkGVina" opacity="1" fill-opacity="0" stroke="#000000" stroke-width="1" stroke-opacity="0"></use></g></g><g><use xlink:href="#g3Nn1aO1rT" opacity="1" fill="#3f3d56" fill-opacity="1"></use><g><use xlink:href="#g3Nn1aO1rT" opacity="1" fill-opacity="0" stroke="#000000" stroke-width="1" stroke-opacity="0"></use></g></g><g><use xlink:href="#bODgSHCA5" opacity="1" fill="#3f3d56" fill-opacity="1"></use><g><use xlink:href="#bODgSHCA5" opacity="1" fill-opacity="0" stroke="#000000" stroke-width="1" stroke-opacity="0"></use></g></g><g><use xlink:href="#gILoRCh8Y" opacity="1" fill="#ffb8b8" fill-opacity="1"></use><g><use xlink:href="#gILoRCh8Y" opacity="1" fill-opacity="0" stroke="#000000" stroke-width="1" stroke-opacity="0"></use></g></g><g><use xlink:href="#aRa74rfxZ" opacity="1" fill="#ffb8b8" fill-opacity="1"></use><g><use xlink:href="#aRa74rfxZ" opacity="1" fill-opacity="0" stroke="#000000" stroke-width="1" stroke-opacity="0"></use></g></g><g><use xlink:href="#a2ov9YfArg" opacity="1" fill="#575a89" fill-opacity="1"></use><g><use xlink:href="#a2ov9YfArg" opacity="1" fill-opacity="0" stroke="#000000" stroke-width="1" stroke-opacity="0"></use></g></g><g><use xlink:href="#b2a8kROnS7" opacity="1" fill="#575a89" fill-opacity="1"></use><g><use xlink:href="#b2a8kROnS7" opacity="1" fill-opacity="0" stroke="#000000" stroke-width="1" stroke-opacity="0"></use></g></g><g><use xlink:href="#a36EM45XaT" opacity="1" fill="#000000" fill-opacity="1"></use><g><use xlink:href="#a36EM45XaT" opacity="1" fill-opacity="0" stroke="#000000" stroke-width="1" stroke-opacity="0"></use></g></g><g><use xlink:href="#bhS8YWf1" opacity="1" fill="#2f2e41" fill-opacity="1"></use><g><use xlink:href="#bhS8YWf1" opacity="1" fill-opacity="0" stroke="#000000" stroke-width="1" stroke-opacity="0"></use></g></g><g><use xlink:href="#aHv6h2jme" opacity="1" fill="#ffbe01" fill-opacity="1"></use><g><use xlink:href="#aHv6h2jme" opacity="1" fill-opacity="0" stroke="#000000" stroke-width="1" stroke-opacity="0"></use></g></g><g><use xlink:href="#b1mi0AjneQ" opacity="1" fill="#e6e6e6" fill-opacity="1"></use><g><use xlink:href="#b1mi0AjneQ" opacity="1" fill-opacity="0" stroke="#000000" stroke-width="1" stroke-opacity="0"></use></g></g><g><use xlink:href="#b1itLNem0H" opacity="1" fill="#e6e6e6" fill-opacity="1"></use><g><use xlink:href="#b1itLNem0H" opacity="1" fill-opacity="0" stroke="#000000" stroke-width="1" stroke-opacity="0"></use></g></g><g><use xlink:href="#cbAYHy1YW" opacity="1" fill="#e6e6e6" fill-opacity="1"></use><g><use xlink:href="#cbAYHy1YW" opacity="1" fill-opacity="0" stroke="#000000" stroke-width="1" stroke-opacity="0"></use></g></g></g></g></svg>