<svg width="47" height="44" viewBox="0 0 47 44" fill="none" xmlns="http://www.w3.org/2000/svg">
<ellipse cx="1.62477" cy="1.62527" rx="1.62477" ry="1.62527" fill="#FFBE01"/>
<ellipse cx="10.3753" cy="1.62832" rx="1.62477" ry="1.62527" fill="#FFBE01"/>
<ellipse cx="19.1251" cy="1.62832" rx="1.62477" ry="1.62527" fill="#FFBE01"/>
<ellipse cx="27.8748" cy="1.62832" rx="1.62477" ry="1.62527" fill="#FFBE01"/>
<ellipse cx="36.6246" cy="1.62527" rx="1.62477" ry="1.62527" fill="#FFBE01"/>
<ellipse cx="45.3751" cy="1.62832" rx="1.62477" ry="1.62527" fill="#FFBE01"/>
<ellipse cx="1.62477" cy="9.59322" rx="1.62477" ry="1.62527" fill="#FFBE01"/>
<ellipse cx="10.3753" cy="9.59322" rx="1.62477" ry="1.62527" fill="#FFBE01"/>
<ellipse cx="19.1251" cy="9.59322" rx="1.62477" ry="1.62527" fill="#FFBE01"/>
<ellipse cx="27.8748" cy="9.59322" rx="1.62477" ry="1.62527" fill="#FFBE01"/>
<ellipse cx="36.6246" cy="9.59322" rx="1.62477" ry="1.62527" fill="#FFBE01"/>
<ellipse cx="45.3751" cy="9.59322" rx="1.62477" ry="1.62527" fill="#FFBE01"/>
<ellipse cx="1.62477" cy="17.5628" rx="1.62477" ry="1.62527" fill="#FFBE01"/>
<ellipse cx="10.3748" cy="17.5628" rx="1.62477" ry="1.62527" fill="#FFBE01"/>
<ellipse cx="19.1251" cy="17.5581" rx="1.62477" ry="1.62527" fill="#FFBE01"/>
<ellipse cx="27.8748" cy="17.5628" rx="1.62477" ry="1.62527" fill="#FFBE01"/>
<ellipse cx="36.6248" cy="17.5628" rx="1.62477" ry="1.62527" fill="#FFBE01"/>
<ellipse cx="45.3748" cy="17.5628" rx="1.62477" ry="1.62527" fill="#FFBE01"/>
<ellipse cx="1.62477" cy="25.5276" rx="1.62477" ry="1.62527" fill="#FFBE01"/>
<ellipse cx="10.3748" cy="25.5276" rx="1.62477" ry="1.62527" fill="#FFBE01"/>
<ellipse cx="19.1248" cy="25.5276" rx="1.62477" ry="1.62527" fill="#FFBE01"/>
<ellipse cx="27.8748" cy="25.5276" rx="1.62477" ry="1.62527" fill="#FFBE01"/>
<ellipse cx="36.6248" cy="25.5276" rx="1.62477" ry="1.62527" fill="#FFBE01"/>
<ellipse cx="45.3748" cy="25.5276" rx="1.62477" ry="1.62527" fill="#FFBE01"/>
<ellipse cx="1.62477" cy="33.4925" rx="1.62477" ry="1.62527" fill="#FFBE01"/>
<ellipse cx="10.3748" cy="33.4925" rx="1.62477" ry="1.62527" fill="#FFBE01"/>
<ellipse cx="19.1248" cy="33.4925" rx="1.62477" ry="1.62527" fill="#FFBE01"/>
<ellipse cx="27.8748" cy="33.4925" rx="1.62477" ry="1.62527" fill="#FFBE01"/>
<ellipse cx="36.6248" cy="33.4925" rx="1.62477" ry="1.62527" fill="#FFBE01"/>
<ellipse cx="45.3748" cy="33.4925" rx="1.62477" ry="1.62527" fill="#FFBE01"/>
<ellipse cx="1.62477" cy="41.4573" rx="1.62477" ry="1.62527" fill="#FFBE01"/>
<ellipse cx="10.3748" cy="41.4573" rx="1.62477" ry="1.62527" fill="#FFBE01"/>
<ellipse cx="19.1248" cy="41.4573" rx="1.62477" ry="1.62527" fill="#FFBE01"/>
<ellipse cx="27.8748" cy="41.4573" rx="1.62477" ry="1.62527" fill="#FFBE01"/>
<ellipse cx="36.6248" cy="41.4573" rx="1.62477" ry="1.62527" fill="#FFBE01"/>
<ellipse cx="45.3748" cy="41.4573" rx="1.62477" ry="1.62527" fill="#FFBE01"/>
</svg>
