<?xml version="1.0" encoding="UTF-8" standalone="no"?>
<!DOCTYPE svg PUBLIC "-//W3C//DTD SVG 1.1//EN" "http://www.w3.org/Graphics/SVG/1.1/DTD/svg11.dtd">
<svg version="1.1" xmlns="http://www.w3.org/2000/svg" xmlns:xlink="http://www.w3.org/1999/xlink" preserveAspectRatio="xMidYMid meet" viewBox="0 0 640 640" width="640" height="640"><defs><path d="M540.47 130.03L542.09 130.13L543.68 130.29L545.25 130.52L546.81 130.81L548.34 131.15L549.85 131.56L551.34 132.02L552.8 132.54L554.23 133.11L555.64 133.74L557.01 134.42L558.36 135.15L559.67 135.94L560.95 136.77L562.2 137.64L563.41 138.57L564.58 139.54L565.71 140.55L566.81 141.6L567.86 142.7L568.87 143.83L569.84 145L570.77 146.21L571.64 147.46L572.47 148.74L573.26 150.05L573.99 151.4L574.67 152.77L575.3 154.18L575.87 155.61L576.39 157.07L576.85 158.56L577.26 160.07L577.6 161.6L577.89 163.16L578.12 164.73L578.28 166.32L578.38 167.94L578.41 169.56L578.41 474.18L578.38 475.81L578.28 477.42L578.12 479.01L577.89 480.59L577.6 482.14L577.26 483.67L576.85 485.18L576.39 486.67L575.87 488.13L575.3 489.56L574.67 490.97L573.99 492.34L573.25 493.69L572.47 495L571.64 496.28L570.77 497.53L569.84 498.74L568.87 499.91L567.86 501.04L566.81 502.14L565.71 503.19L564.58 504.21L563.41 505.17L562.2 506.1L560.95 506.97L559.67 507.8L558.36 508.59L557.01 509.32L555.64 510L554.23 510.63L552.8 511.2L551.34 511.72L549.85 512.18L548.34 512.59L546.81 512.94L545.25 513.22L543.68 513.45L542.09 513.61L540.47 513.71L538.85 513.74L105.97 513.74L104.35 513.71L102.73 513.61L101.14 513.45L99.57 513.22L98.01 512.94L96.48 512.59L94.97 512.18L93.48 511.72L92.02 511.2L90.59 510.63L89.18 510L87.81 509.32L86.46 508.59L85.15 507.8L83.87 506.97L82.62 506.1L81.41 505.17L80.24 504.21L79.11 503.19L78.01 502.14L76.96 501.04L75.95 499.91L74.98 498.74L74.05 497.53L73.18 496.28L72.35 495L71.56 493.69L70.83 492.34L70.15 490.97L69.52 489.56L68.95 488.13L68.43 486.67L67.97 485.18L67.56 483.67L67.22 482.14L66.93 480.59L66.7 479.01L66.54 477.42L66.44 475.81L66.41 474.18L66.41 169.56L66.44 167.94L66.54 166.32L66.7 164.73L66.93 163.16L67.22 161.6L67.56 160.07L67.97 158.56L68.43 157.07L68.95 155.61L69.52 154.18L70.15 152.77L70.83 151.4L71.56 150.05L72.35 148.74L73.18 147.46L74.05 146.21L74.98 145L75.95 143.83L76.96 142.7L78.01 141.6L79.11 140.55L80.24 139.54L81.41 138.57L82.62 137.64L83.87 136.77L85.15 135.94L86.46 135.15L87.81 134.42L89.18 133.74L90.59 133.11L92.02 132.54L93.48 132.02L94.97 131.56L96.48 131.15L98.01 130.81L99.57 130.52L101.14 130.29L102.73 130.13L104.35 130.03L105.97 130L538.85 130L540.47 130.03ZM383.1 335.89L381.79 337.12L380.46 338.32L379.11 339.49L377.75 340.63L376.36 341.73L374.96 342.81L373.54 343.85L372.11 344.86L370.66 345.84L369.19 346.78L367.71 347.69L366.22 348.58L364.71 349.42L363.19 350.24L361.66 351.03L360.11 351.78L358.56 352.5L356.99 353.19L355.41 353.85L353.82 354.47L352.23 355.06L350.62 355.63L349 356.15L347.38 356.65L345.75 357.11L344.11 357.55L342.47 357.95L340.82 358.32L339.16 358.65L337.5 358.96L335.84 359.23L334.17 359.47L332.49 359.68L330.82 359.85L329.14 360L327.46 360.11L325.78 360.19L324.09 360.24L322.41 360.26L320.73 360.24L319.04 360.19L317.36 360.11L315.68 360L314 359.85L312.33 359.68L310.65 359.47L308.98 359.23L307.32 358.96L305.66 358.65L304 358.32L302.35 357.95L300.71 357.55L299.07 357.11L297.44 356.65L295.82 356.15L294.2 355.62L292.59 355.06L291 354.47L289.41 353.85L287.83 353.19L286.26 352.5L284.71 351.78L283.16 351.03L281.63 350.24L280.11 349.42L278.6 348.58L277.11 347.69L275.63 346.78L274.16 345.84L272.71 344.86L271.28 343.85L269.86 342.81L268.46 341.73L267.07 340.63L265.71 339.49L264.36 338.32L263.03 337.12L261.72 335.89L260.42 334.62L258.28 332.48L94.74 496.01L95 496.14L95.25 496.27L95.51 496.39L95.77 496.51L96.03 496.63L96.29 496.74L96.55 496.86L96.82 496.96L97.08 497.07L97.35 497.17L97.62 497.27L97.89 497.37L98.16 497.46L98.44 497.55L98.71 497.64L98.99 497.73L99.27 497.81L99.54 497.88L99.82 497.96L100.11 498.03L100.39 498.1L100.67 498.16L100.96 498.22L101.24 498.28L101.53 498.34L101.82 498.39L102.11 498.44L102.4 498.48L102.69 498.52L102.99 498.56L103.28 498.59L103.58 498.63L103.87 498.65L104.17 498.68L104.47 498.7L104.77 498.71L105.07 498.73L105.37 498.73L105.67 498.74L105.97 498.74L538.85 498.74L539.15 498.74L539.45 498.73L539.75 498.73L540.05 498.71L540.35 498.7L540.65 498.68L540.95 498.65L541.24 498.63L541.54 498.59L541.83 498.56L542.13 498.52L542.42 498.48L542.71 498.44L543 498.39L543.29 498.34L543.58 498.28L543.86 498.22L544.15 498.16L544.43 498.1L544.71 498.03L545 497.96L545.28 497.88L545.55 497.81L545.83 497.72L546.11 497.64L546.38 497.55L546.66 497.46L546.93 497.37L547.2 497.27L547.47 497.17L547.74 497.07L548 496.96L548.27 496.86L548.53 496.74L548.79 496.63L549.05 496.51L549.31 496.39L549.57 496.27L549.82 496.14L550.08 496.01L386.54 332.48L384.4 334.62L383.1 335.89ZM105.67 145L105.37 145.01L105.07 145.02L104.77 145.03L104.47 145.04L104.17 145.07L103.87 145.09L103.58 145.12L103.28 145.15L102.99 145.18L102.69 145.22L102.4 145.26L102.11 145.3L101.82 145.35L101.53 145.4L101.24 145.46L100.96 145.52L100.67 145.58L100.39 145.64L100.11 145.71L99.82 145.78L99.54 145.86L99.27 145.94L98.99 146.02L98.71 146.1L98.44 146.19L98.16 146.28L97.89 146.37L97.62 146.47L97.35 146.57L97.08 146.67L96.82 146.78L96.55 146.89L96.29 147L96.03 147.11L95.77 147.23L95.51 147.35L95.25 147.47L95 147.6L94.75 147.73L222.5 275.48L222.71 275.7L222.91 275.93L223.11 276.17L223.29 276.41L223.46 276.66L223.62 276.91L223.77 277.17L223.9 277.43L224.03 277.69L224.14 277.96L224.25 278.24L224.34 278.51L224.42 278.79L224.5 279.07L224.56 279.35L224.61 279.64L224.64 279.92L224.67 280.21L224.69 280.5L224.69 280.78L224.69 281.07L224.67 281.36L224.64 281.65L224.61 281.93L224.56 282.22L224.5 282.5L224.42 282.78L224.34 283.06L224.25 283.33L224.14 283.61L224.03 283.88L223.9 284.14L223.77 284.4L223.62 284.66L223.46 284.91L223.29 285.16L223.11 285.4L222.91 285.64L222.71 285.86L222.5 286.09L222.39 286.2L222.27 286.3L222.16 286.41L222.04 286.51L221.93 286.6L221.81 286.7L221.69 286.79L221.57 286.88L221.44 286.97L221.32 287.05L221.2 287.13L221.07 287.21L220.94 287.28L220.81 287.36L220.68 287.43L220.55 287.49L220.42 287.56L220.29 287.62L220.15 287.68L220.02 287.74L219.88 287.79L219.74 287.84L219.61 287.89L219.47 287.93L219.33 287.98L219.19 288.02L219.05 288.05L218.91 288.09L218.77 288.12L218.63 288.15L218.48 288.17L218.34 288.2L218.2 288.22L218.06 288.24L217.91 288.25L217.77 288.26L217.63 288.27L217.48 288.28L217.34 288.28L217.19 288.29L217.05 288.28L216.91 288.28L216.76 288.27L216.62 288.26L216.48 288.25L216.33 288.24L216.19 288.22L216.05 288.2L215.9 288.17L215.76 288.15L215.62 288.12L215.48 288.09L215.34 288.05L215.2 288.02L215.06 287.98L214.92 287.93L214.78 287.89L214.64 287.84L214.51 287.79L214.37 287.74L214.24 287.68L214.1 287.62L213.97 287.56L213.84 287.49L213.71 287.43L213.58 287.36L213.45 287.28L213.32 287.21L213.19 287.13L213.07 287.05L212.94 286.97L212.82 286.88L212.7 286.79L212.58 286.7L212.46 286.6L212.34 286.51L212.23 286.41L212.11 286.3L212 286.2L211.89 286.09L84.14 158.34L84.01 158.59L83.88 158.84L83.76 159.1L83.64 159.36L83.52 159.62L83.41 159.88L83.3 160.14L83.19 160.41L83.08 160.67L82.98 160.94L82.88 161.21L82.78 161.48L82.69 161.75L82.6 162.03L82.51 162.3L82.43 162.58L82.35 162.86L82.27 163.13L82.19 163.41L82.12 163.7L82.05 163.98L81.99 164.26L81.93 164.55L81.87 164.83L81.81 165.12L81.76 165.41L81.72 165.7L81.67 165.99L81.63 166.28L81.59 166.58L81.56 166.87L81.53 167.17L81.5 167.46L81.48 167.76L81.46 168.06L81.44 168.36L81.43 168.66L81.42 168.96L81.41 169.26L81.41 169.56L81.41 474.18L81.41 474.48L81.42 474.78L81.43 475.08L81.44 475.38L81.46 475.68L81.48 475.98L81.5 476.28L81.53 476.58L81.56 476.87L81.59 477.17L81.63 477.46L81.67 477.75L81.72 478.04L81.76 478.33L81.81 478.62L81.87 478.91L81.93 479.19L81.99 479.48L82.05 479.76L82.12 480.05L82.19 480.33L82.27 480.61L82.35 480.89L82.43 481.16L82.51 481.44L82.6 481.71L82.69 481.99L82.78 482.26L82.88 482.53L82.98 482.8L83.08 483.07L83.19 483.33L83.3 483.6L83.41 483.86L83.52 484.12L83.64 484.38L83.76 484.64L83.88 484.9L84.01 485.15L84.14 485.41L247.68 321.87L235.83 310.02L235.61 309.8L235.41 309.57L235.22 309.34L235.04 309.09L234.87 308.85L234.71 308.59L234.56 308.34L234.42 308.08L234.29 307.81L234.18 307.54L234.08 307.27L233.98 306.99L233.9 306.72L233.83 306.44L233.77 306.15L233.72 305.87L233.68 305.58L233.65 305.3L233.64 305.01L233.63 304.72L233.64 304.43L233.65 304.15L233.68 303.86L233.72 303.57L233.77 303.29L233.83 303.01L233.9 302.72L233.98 302.45L234.08 302.17L234.18 301.9L234.29 301.63L234.42 301.36L234.56 301.1L234.71 300.85L234.87 300.59L235.04 300.35L235.22 300.11L235.41 299.87L235.61 299.64L235.83 299.42L236.05 299.2L236.28 299L236.52 298.81L236.76 298.63L237 298.46L237.26 298.3L237.51 298.15L237.77 298.01L238.04 297.88L238.31 297.77L238.58 297.67L238.86 297.57L239.13 297.49L239.41 297.42L239.7 297.36L239.98 297.31L240.27 297.27L240.55 297.24L240.84 297.23L241.13 297.22L241.42 297.23L241.71 297.24L241.99 297.27L242.28 297.31L242.56 297.36L242.84 297.42L243.13 297.49L243.4 297.57L243.68 297.67L243.95 297.77L244.22 297.88L244.49 298.01L244.75 298.15L245 298.3L245.26 298.46L245.5 298.63L245.74 298.81L245.98 299L246.21 299.2L246.43 299.42L271.03 324.02L273.19 326.09L275.41 328.05L277.69 329.91L280.03 331.66L282.42 333.31L284.86 334.85L287.35 336.29L289.88 337.61L292.45 338.84L295.05 339.95L297.69 340.96L300.37 341.86L303.06 342.66L305.78 343.35L308.52 343.93L311.28 344.41L314.05 344.78L316.83 345.05L319.62 345.21L322.41 345.26L325.2 345.21L327.99 345.05L330.77 344.78L333.54 344.41L336.3 343.93L339.04 343.35L341.76 342.66L344.45 341.86L347.12 340.96L349.76 339.95L352.37 338.84L354.94 337.61L357.47 336.29L359.96 334.85L362.4 333.31L364.79 331.66L367.13 329.91L369.41 328.05L371.63 326.09L373.79 324.02L550.08 147.73L549.9 147.64L549.73 147.56L549.55 147.47L549.36 147.39L549.16 147.31L548.96 147.22L548.76 147.14L548.55 147.06L548.33 146.98L548.11 146.91L547.88 146.83L547.65 146.75L547.41 146.68L547.17 146.6L546.92 146.53L546.66 146.46L546.4 146.39L546.13 146.31L545.86 146.25L545.58 146.18L545.3 146.11L545.01 146.04L544.72 145.98L544.42 145.91L544.11 145.85L543.8 145.78L543.48 145.72L543.16 145.66L542.83 145.6L542.5 145.54L542.16 145.48L541.81 145.43L541.46 145.37L541.1 145.31L540.74 145.26L540.37 145.2L540 145.15L539.62 145.1L539.24 145.05L538.85 145L105.98 145L105.67 145ZM560.68 485.41L560.81 485.15L560.94 484.9L561.06 484.64L561.18 484.38L561.3 484.12L561.41 483.86L561.52 483.6L561.63 483.33L561.74 483.07L561.84 482.8L561.94 482.53L562.04 482.26L562.13 481.99L562.22 481.71L562.31 481.44L562.39 481.16L562.47 480.89L562.55 480.61L562.63 480.33L562.7 480.05L562.77 479.76L562.83 479.48L562.89 479.19L562.95 478.91L563.01 478.62L563.06 478.33L563.1 478.04L563.15 477.75L563.19 477.46L563.23 477.16L563.26 476.87L563.29 476.57L563.32 476.28L563.34 475.98L563.36 475.68L563.38 475.38L563.39 475.08L563.4 474.78L563.41 474.48L563.41 474.18L563.41 169.56L563.41 169.26L563.4 168.96L563.39 168.66L563.38 168.36L563.36 168.06L563.34 167.76L563.32 167.46L563.29 167.17L563.26 166.87L563.23 166.58L563.19 166.28L563.15 165.99L563.1 165.7L563.06 165.41L563.01 165.12L562.95 164.83L562.89 164.55L562.83 164.26L562.77 163.98L562.7 163.7L562.63 163.41L562.55 163.13L562.47 162.86L562.39 162.58L562.31 162.3L562.22 162.03L562.13 161.75L562.04 161.48L561.94 161.21L561.84 160.94L561.74 160.67L561.63 160.41L561.52 160.14L561.41 159.88L561.3 159.62L561.18 159.36L561.06 159.1L560.94 158.84L560.81 158.59L560.68 158.33L397.15 321.87L560.68 485.41Z" id="b1l3N8TBO2"></path></defs><g><g><g><g><filter id="shadow10936492" x="57.41" y="121" width="531" height="402.74" filterUnits="userSpaceOnUse" primitiveUnits="userSpaceOnUse"><feFlood></feFlood><feComposite in2="SourceAlpha" operator="in"></feComposite><feGaussianBlur stdDeviation="1"></feGaussianBlur><feOffset dx="1" dy="1" result="afterOffset"></feOffset><feFlood flood-color="#000000" flood-opacity="0.5"></feFlood><feComposite in2="afterOffset" operator="in"></feComposite><feMorphology operator="dilate" radius="1"></feMorphology><feComposite in2="SourceAlpha" operator="out"></feComposite></filter><path d="M540.47 130.03L542.09 130.13L543.68 130.29L545.25 130.52L546.81 130.81L548.34 131.15L549.85 131.56L551.34 132.02L552.8 132.54L554.23 133.11L555.64 133.74L557.01 134.42L558.36 135.15L559.67 135.94L560.95 136.77L562.2 137.64L563.41 138.57L564.58 139.54L565.71 140.55L566.81 141.6L567.86 142.7L568.87 143.83L569.84 145L570.77 146.21L571.64 147.46L572.47 148.74L573.26 150.05L573.99 151.4L574.67 152.77L575.3 154.18L575.87 155.61L576.39 157.07L576.85 158.56L577.26 160.07L577.6 161.6L577.89 163.16L578.12 164.73L578.28 166.32L578.38 167.94L578.41 169.56L578.41 474.18L578.38 475.81L578.28 477.42L578.12 479.01L577.89 480.59L577.6 482.14L577.26 483.67L576.85 485.18L576.39 486.67L575.87 488.13L575.3 489.56L574.67 490.97L573.99 492.34L573.25 493.69L572.47 495L571.64 496.28L570.77 497.53L569.84 498.74L568.87 499.91L567.86 501.04L566.81 502.14L565.71 503.19L564.58 504.21L563.41 505.17L562.2 506.1L560.95 506.97L559.67 507.8L558.36 508.59L557.01 509.32L555.64 510L554.23 510.63L552.8 511.2L551.34 511.72L549.85 512.18L548.34 512.59L546.81 512.94L545.25 513.22L543.68 513.45L542.09 513.61L540.47 513.71L538.85 513.74L105.97 513.74L104.35 513.71L102.73 513.61L101.14 513.45L99.57 513.22L98.01 512.94L96.48 512.59L94.97 512.18L93.48 511.72L92.02 511.2L90.59 510.63L89.18 510L87.81 509.32L86.46 508.59L85.15 507.8L83.87 506.97L82.62 506.1L81.41 505.17L80.24 504.21L79.11 503.19L78.01 502.14L76.96 501.04L75.95 499.91L74.98 498.74L74.05 497.53L73.18 496.28L72.35 495L71.56 493.69L70.83 492.34L70.15 490.97L69.52 489.56L68.95 488.13L68.43 486.67L67.97 485.18L67.56 483.67L67.22 482.14L66.93 480.59L66.7 479.01L66.54 477.42L66.44 475.81L66.41 474.18L66.41 169.56L66.44 167.94L66.54 166.32L66.7 164.73L66.93 163.16L67.22 161.6L67.56 160.07L67.97 158.56L68.43 157.07L68.95 155.61L69.52 154.18L70.15 152.77L70.83 151.4L71.56 150.05L72.35 148.74L73.18 147.46L74.05 146.21L74.98 145L75.95 143.83L76.96 142.7L78.01 141.6L79.11 140.55L80.24 139.54L81.41 138.57L82.62 137.64L83.87 136.77L85.15 135.94L86.46 135.15L87.81 134.42L89.18 133.74L90.59 133.11L92.02 132.54L93.48 132.02L94.97 131.56L96.48 131.15L98.01 130.81L99.57 130.52L101.14 130.29L102.73 130.13L104.35 130.03L105.97 130L538.85 130L540.47 130.03ZM383.1 335.89L381.79 337.12L380.46 338.32L379.11 339.49L377.75 340.63L376.36 341.73L374.96 342.81L373.54 343.85L372.11 344.86L370.66 345.84L369.19 346.78L367.71 347.69L366.22 348.58L364.71 349.42L363.19 350.24L361.66 351.03L360.11 351.78L358.56 352.5L356.99 353.19L355.41 353.85L353.82 354.47L352.23 355.06L350.62 355.63L349 356.15L347.38 356.65L345.75 357.11L344.11 357.55L342.47 357.95L340.82 358.32L339.16 358.65L337.5 358.96L335.84 359.23L334.17 359.47L332.49 359.68L330.82 359.85L329.14 360L327.46 360.11L325.78 360.19L324.09 360.24L322.41 360.26L320.73 360.24L319.04 360.19L317.36 360.11L315.68 360L314 359.85L312.33 359.68L310.65 359.47L308.98 359.23L307.32 358.96L305.66 358.65L304 358.32L302.35 357.95L300.71 357.55L299.07 357.11L297.44 356.65L295.82 356.15L294.2 355.62L292.59 355.06L291 354.47L289.41 353.85L287.83 353.19L286.26 352.5L284.71 351.78L283.16 351.03L281.63 350.24L280.11 349.42L278.6 348.58L277.11 347.69L275.63 346.78L274.16 345.84L272.71 344.86L271.28 343.85L269.86 342.81L268.46 341.73L267.07 340.63L265.71 339.49L264.36 338.32L263.03 337.12L261.72 335.89L260.42 334.62L258.28 332.48L94.74 496.01L95 496.14L95.25 496.27L95.51 496.39L95.77 496.51L96.03 496.63L96.29 496.74L96.55 496.86L96.82 496.96L97.08 497.07L97.35 497.17L97.62 497.27L97.89 497.37L98.16 497.46L98.44 497.55L98.71 497.64L98.99 497.73L99.27 497.81L99.54 497.88L99.82 497.96L100.11 498.03L100.39 498.1L100.67 498.16L100.96 498.22L101.24 498.28L101.53 498.34L101.82 498.39L102.11 498.44L102.4 498.48L102.69 498.52L102.99 498.56L103.28 498.59L103.58 498.63L103.87 498.65L104.17 498.68L104.47 498.7L104.77 498.71L105.07 498.73L105.37 498.73L105.67 498.74L105.97 498.74L538.85 498.74L539.15 498.74L539.45 498.73L539.75 498.73L540.05 498.71L540.35 498.7L540.65 498.68L540.95 498.65L541.24 498.63L541.54 498.59L541.83 498.56L542.13 498.52L542.42 498.48L542.71 498.44L543 498.39L543.29 498.34L543.58 498.28L543.86 498.22L544.15 498.16L544.43 498.1L544.71 498.03L545 497.96L545.28 497.88L545.55 497.81L545.83 497.72L546.11 497.64L546.38 497.55L546.66 497.46L546.93 497.37L547.2 497.27L547.47 497.17L547.74 497.07L548 496.96L548.27 496.86L548.53 496.74L548.79 496.63L549.05 496.51L549.31 496.39L549.57 496.27L549.82 496.14L550.08 496.01L386.54 332.48L384.4 334.62L383.1 335.89ZM105.67 145L105.37 145.01L105.07 145.02L104.77 145.03L104.47 145.04L104.17 145.07L103.87 145.09L103.58 145.12L103.28 145.15L102.99 145.18L102.69 145.22L102.4 145.26L102.11 145.3L101.82 145.35L101.53 145.4L101.24 145.46L100.96 145.52L100.67 145.58L100.39 145.64L100.11 145.71L99.82 145.78L99.54 145.86L99.27 145.94L98.99 146.02L98.71 146.1L98.44 146.19L98.16 146.28L97.89 146.37L97.62 146.47L97.35 146.57L97.08 146.67L96.82 146.78L96.55 146.89L96.29 147L96.03 147.11L95.77 147.23L95.51 147.35L95.25 147.47L95 147.6L94.75 147.73L222.5 275.48L222.71 275.7L222.91 275.93L223.11 276.17L223.29 276.41L223.46 276.66L223.62 276.91L223.77 277.17L223.9 277.43L224.03 277.69L224.14 277.96L224.25 278.24L224.34 278.51L224.42 278.79L224.5 279.07L224.56 279.35L224.61 279.64L224.64 279.92L224.67 280.21L224.69 280.5L224.69 280.78L224.69 281.07L224.67 281.36L224.64 281.65L224.61 281.93L224.56 282.22L224.5 282.5L224.42 282.78L224.34 283.06L224.25 283.33L224.14 283.61L224.03 283.88L223.9 284.14L223.77 284.4L223.62 284.66L223.46 284.91L223.29 285.16L223.11 285.4L222.91 285.64L222.71 285.86L222.5 286.09L222.39 286.2L222.27 286.3L222.16 286.41L222.04 286.51L221.93 286.6L221.81 286.7L221.69 286.79L221.57 286.88L221.44 286.97L221.32 287.05L221.2 287.13L221.07 287.21L220.94 287.28L220.81 287.36L220.68 287.43L220.55 287.49L220.42 287.56L220.29 287.62L220.15 287.68L220.02 287.74L219.88 287.79L219.74 287.84L219.61 287.89L219.47 287.93L219.33 287.98L219.19 288.02L219.05 288.05L218.91 288.09L218.77 288.12L218.63 288.15L218.48 288.17L218.34 288.2L218.2 288.22L218.06 288.24L217.91 288.25L217.77 288.26L217.63 288.27L217.48 288.28L217.34 288.28L217.19 288.29L217.05 288.28L216.91 288.28L216.76 288.27L216.62 288.26L216.48 288.25L216.33 288.24L216.19 288.22L216.05 288.2L215.9 288.17L215.76 288.15L215.62 288.12L215.48 288.09L215.34 288.05L215.2 288.02L215.06 287.98L214.92 287.93L214.78 287.89L214.64 287.84L214.51 287.79L214.37 287.74L214.24 287.68L214.1 287.62L213.97 287.56L213.84 287.49L213.71 287.43L213.58 287.36L213.45 287.28L213.32 287.21L213.19 287.13L213.07 287.05L212.94 286.97L212.82 286.88L212.7 286.79L212.58 286.7L212.46 286.6L212.34 286.51L212.23 286.41L212.11 286.3L212 286.2L211.89 286.09L84.14 158.34L84.01 158.59L83.88 158.84L83.76 159.1L83.64 159.36L83.52 159.62L83.41 159.88L83.3 160.14L83.19 160.41L83.08 160.67L82.98 160.94L82.88 161.21L82.78 161.48L82.69 161.75L82.6 162.03L82.51 162.3L82.43 162.58L82.35 162.86L82.27 163.13L82.19 163.41L82.12 163.7L82.05 163.98L81.99 164.26L81.93 164.55L81.87 164.83L81.81 165.12L81.76 165.41L81.72 165.7L81.67 165.99L81.63 166.28L81.59 166.58L81.56 166.87L81.53 167.17L81.5 167.46L81.48 167.76L81.46 168.06L81.44 168.36L81.43 168.66L81.42 168.96L81.41 169.26L81.41 169.56L81.41 474.18L81.41 474.48L81.42 474.78L81.43 475.08L81.44 475.38L81.46 475.68L81.48 475.98L81.5 476.28L81.53 476.58L81.56 476.87L81.59 477.17L81.63 477.46L81.67 477.75L81.72 478.04L81.76 478.33L81.81 478.62L81.87 478.91L81.93 479.19L81.99 479.48L82.05 479.76L82.12 480.05L82.19 480.33L82.27 480.61L82.35 480.89L82.43 481.16L82.51 481.44L82.6 481.71L82.69 481.99L82.78 482.26L82.88 482.53L82.98 482.8L83.08 483.07L83.19 483.33L83.3 483.6L83.41 483.86L83.52 484.12L83.64 484.38L83.76 484.64L83.88 484.9L84.01 485.15L84.14 485.41L247.68 321.87L235.83 310.02L235.61 309.8L235.41 309.57L235.22 309.34L235.04 309.09L234.87 308.85L234.71 308.59L234.56 308.34L234.42 308.08L234.29 307.81L234.18 307.54L234.08 307.27L233.98 306.99L233.9 306.72L233.83 306.44L233.77 306.15L233.72 305.87L233.68 305.58L233.65 305.3L233.64 305.01L233.63 304.72L233.64 304.43L233.65 304.15L233.68 303.86L233.72 303.57L233.77 303.29L233.83 303.01L233.9 302.72L233.98 302.45L234.08 302.17L234.18 301.9L234.29 301.63L234.42 301.36L234.56 301.1L234.71 300.85L234.87 300.59L235.04 300.35L235.22 300.11L235.41 299.87L235.61 299.64L235.83 299.42L236.05 299.2L236.28 299L236.52 298.81L236.76 298.63L237 298.46L237.26 298.3L237.51 298.15L237.77 298.01L238.04 297.88L238.31 297.77L238.58 297.67L238.86 297.57L239.13 297.49L239.41 297.42L239.7 297.36L239.98 297.31L240.27 297.27L240.55 297.24L240.84 297.23L241.13 297.22L241.42 297.23L241.71 297.24L241.99 297.27L242.28 297.31L242.56 297.36L242.84 297.42L243.13 297.49L243.4 297.57L243.68 297.67L243.95 297.77L244.22 297.88L244.49 298.01L244.75 298.15L245 298.3L245.26 298.46L245.5 298.63L245.74 298.81L245.98 299L246.21 299.2L246.43 299.42L271.03 324.02L273.19 326.09L275.41 328.05L277.69 329.91L280.03 331.66L282.42 333.31L284.86 334.85L287.35 336.29L289.88 337.61L292.45 338.84L295.05 339.95L297.69 340.96L300.37 341.86L303.06 342.66L305.78 343.35L308.52 343.93L311.28 344.41L314.05 344.78L316.83 345.05L319.62 345.21L322.41 345.26L325.2 345.21L327.99 345.05L330.77 344.78L333.54 344.41L336.3 343.93L339.04 343.35L341.76 342.66L344.45 341.86L347.12 340.96L349.76 339.95L352.37 338.84L354.94 337.61L357.47 336.29L359.96 334.85L362.4 333.31L364.79 331.66L367.13 329.91L369.41 328.05L371.63 326.09L373.79 324.02L550.08 147.73L549.9 147.64L549.73 147.56L549.55 147.47L549.36 147.39L549.16 147.31L548.96 147.22L548.76 147.14L548.55 147.06L548.33 146.98L548.11 146.91L547.88 146.83L547.65 146.75L547.41 146.68L547.17 146.6L546.92 146.53L546.66 146.46L546.4 146.39L546.13 146.31L545.86 146.25L545.58 146.18L545.3 146.11L545.01 146.04L544.72 145.98L544.42 145.91L544.11 145.85L543.8 145.78L543.48 145.72L543.16 145.66L542.83 145.6L542.5 145.54L542.16 145.48L541.81 145.43L541.46 145.37L541.1 145.31L540.74 145.26L540.37 145.2L540 145.15L539.62 145.1L539.24 145.05L538.85 145L105.98 145L105.67 145ZM560.68 485.41L560.81 485.15L560.94 484.9L561.06 484.64L561.18 484.38L561.3 484.12L561.41 483.86L561.52 483.6L561.63 483.33L561.74 483.07L561.84 482.8L561.94 482.53L562.04 482.26L562.13 481.99L562.22 481.71L562.31 481.44L562.39 481.16L562.47 480.89L562.55 480.61L562.63 480.33L562.7 480.05L562.77 479.76L562.83 479.48L562.89 479.19L562.95 478.91L563.01 478.62L563.06 478.33L563.1 478.04L563.15 477.75L563.19 477.46L563.23 477.16L563.26 476.87L563.29 476.57L563.32 476.28L563.34 475.98L563.36 475.68L563.38 475.38L563.39 475.08L563.4 474.78L563.41 474.48L563.41 474.18L563.41 169.56L563.41 169.26L563.4 168.96L563.39 168.66L563.38 168.36L563.36 168.06L563.34 167.76L563.32 167.46L563.29 167.17L563.26 166.87L563.23 166.58L563.19 166.28L563.15 165.99L563.1 165.7L563.06 165.41L563.01 165.12L562.95 164.83L562.89 164.55L562.83 164.26L562.77 163.98L562.7 163.7L562.63 163.41L562.55 163.13L562.47 162.86L562.39 162.58L562.31 162.3L562.22 162.03L562.13 161.75L562.04 161.48L561.94 161.21L561.84 160.94L561.74 160.67L561.63 160.41L561.52 160.14L561.41 159.88L561.3 159.62L561.18 159.36L561.06 159.1L560.94 158.84L560.81 158.59L560.68 158.33L397.15 321.87L560.68 485.41Z" id="c28zY6sjIi" fill="white" fill-opacity="1" filter="url(#shadow10936492)"></path></g><use xlink:href="#b1l3N8TBO2" opacity="1" fill="#ffbe01" fill-opacity="1"></use><g><use xlink:href="#b1l3N8TBO2" opacity="1" fill-opacity="0" stroke="#000000" stroke-width="1" stroke-opacity="0.4"></use></g></g></g></g></svg>